<svg xmlns="http://www.w3.org/2000/svg" viewBox="0 0 443.65 216.52" fill="#e30613" xmlns:v="https://vecta.io/nano"><path d="M328.26 211.19c4-1.11 8.11-2.17 12.22-3.07 5.84-1.41 11.74-2.61 17.67-3.68s11.87-2 17.85-2.75c4.22-.6 8.47-1 12.71-1.49s8.49-.83 12.74-1.21l15.72-1.19 15.75-.86c.71 0 1.43-.06 2.15-.11s1.43-.09 2.14-.19a4.15 4.15 0 0 0 .54-.09l.45-.12a.38.38 0 0 0 .14-.06s.07-.07.06-.09 0 0-.08-.08h-.12l-.37-.08-.43-.06c-.78-.09-1.56-.1-2.35-.13s-1.57 0-2.35-.05l-21.33.16c-7.1.16-14.21.55-21.31.93l-9.89.69-9.87.89c-3.29.31-6.5.69-9.73 1.11l-9.69 1.39c-6.4 1-12.73 2.25-19 3.68s-12.66 2.71-18.71 4.87a13.59 13.59 0 0 0-1.29.47 28.02 28.02 0 0 0-1.27.51 25.07 25.07 0 0 0-2.31 1.09c-.75.41-1.47.85-1.95 1.17a7 7 0 0 0-.94.73 7.52 7.52 0 0 0-.6.61 1.85 1.85 0 0 0-.32.49 1.46 1.46 0 0 0-.11.5 1.27 1.27 0 0 0 .11.32 1.34 1.34 0 0 0 .18.29 1.39 1.39 0 0 0 .25.24 1.35 1.35 0 0 0 .41.21 5.57 5.57 0 0 0 .85.25 6 6 0 0 0 1.11.1c.45 0 1 0 1.59-.06a18.5 18.5 0 0 0 1.89-.27 42.08 42.08 0 0 0 2.66-.59c.94-.24 1.88-.52 2.8-.82l12.06-3.6m-72.96-38.28q-.41 4.09 1 5.92 1.41 1.83 4.87 1.84a23.21 23.21 0 0 0 5.82-.72 39.81 39.81 0 0 0 4.32-1.33 15.65 15.65 0 0 1 .51 1.74 7.59 7.59 0 0 1 .24 1.74 2.59 2.59 0 0 1-.82 2.11 10.33 10.33 0 0 1-3.95 2.25 21.58 21.58 0 0 1-7.29 1 21.16 21.16 0 0 1-5.52-.68 11.38 11.38 0 0 1-4.36-2.21 10.18 10.18 0 0 1-2.86-4 15.38 15.38 0 0 1-1-5.92 25.78 25.78 0 0 1 1.43-8.89 19.18 19.18 0 0 1 4-6.64 17 17 0 0 1 6-4.15 19.5 19.5 0 0 1 7.49-1.43q6 0 8.85 2.45a8.56 8.56 0 0 1 1.33 11.27 11 11 0 0 1-4.36 3.27 25.23 25.23 0 0 1-6.81 1.8 66 66 0 0 1-8.89.54m9.4-13.21a6.55 6.55 0 0 0-3.2.78 9.12 9.12 0 0 0-2.52 2 12.7 12.7 0 0 0-1.84 2.83 18.14 18.14 0 0 0-1.16 3.06 31.12 31.12 0 0 0 9.43-1.4q3.17-1.19 3.17-4.05a3 3 0 0 0-1-2.42 4.33 4.33 0 0 0-2.86-.85"/><path d="M278.88 157.02a12.66 12.66 0 0 1 3-2.45 6.33 6.33 0 0 1 3.2-1 4.1 4.1 0 0 1 3.81 2.59l4 8.72 8.53-10.6a2.18 2.18 0 0 1 1.7-.92 11 11 0 0 1 3.68 1.06q3.47 1.36 1.5 3.47l-12 12.67q2.39 4.29 3.85 6.81 1.46 2.52 2.32 3.88a11.53 11.53 0 0 0 1.36 1.87l.92.91a15.31 15.31 0 0 1-3 2.49 6 6 0 0 1-3.17 1 4.19 4.19 0 0 1-3.81-2.59l-4.36-9.74-9.13 11.51a2.1 2.1 0 0 1-1.73.88 11.43 11.43 0 0 1-3.65-1.09q-3.47-1.37-1.5-3.48l12.46-13.28q-2.32-4.09-3.68-6.44-1.36-2.35-2.18-3.61a17.48 17.48 0 0 0-1.26-1.77l-.85-.92m30.78 12.56q1.09-5.38 1.6-8.41.51-3.03.72-4.46a3.09 3.09 0 0 1 1.7-2.31 10.8 10.8 0 0 1 4.7-.75q2 0 1.84 1.7a7.74 7.74 0 0 1-.24 1.36l-.58 2.42-.75 3-.75 2.93.34.14a25.3 25.3 0 0 1 5.07-8.45 9.7 9.7 0 0 1 7.25-3.06 10.1 10.1 0 0 1 3.71.68 7.71 7.71 0 0 1 3 2.18 10.85 10.85 0 0 1 2 3.88 19.23 19.23 0 0 1 .75 5.72 29.84 29.84 0 0 1-1.19 8.65 20 20 0 0 1-3.44 6.77 16 16 0 0 1-5.48 4.43 16.28 16.28 0 0 1-7.32 1.6 20.69 20.69 0 0 1-2.66-.17q-1.29-.17-2.35-.38l-1.8-.41-1-.27q-.82 3.88-1.36 6.54-.54 2.66-.85 4.46a28.81 28.81 0 0 0-.37 3 15 15 0 0 0 0 2c-.5 0-1.19.09-2.08.13l-3.24.07a3.67 3.67 0 0 1-2.59-.65 2.43 2.43 0 0 1-.61-1.73 14.83 14.83 0 0 1 .31-2.25q.31-1.64 1-5l1.8-9q1.12-5.62 2.83-14.19m11.17 11.78a7.65 7.65 0 0 0 4.66-1.43 11.2 11.2 0 0 0 3.17-3.64 17.83 17.83 0 0 0 1.8-4.83 23.48 23.48 0 0 0 .58-5.07q0-3.21-1.06-4.5a3.53 3.53 0 0 0-2.89-1.29q-3.06 0-5.86 4.22-2.8 4.22-4.77 13.35l-.54 2.72 2.08.31a20.15 20.15 0 0 0 2.83.17m44.02-20.34a8.28 8.28 0 0 0-4.08.21 8.59 8.59 0 0 0-3.81 2.52 20 20 0 0 0-3.31 5.24 38.87 38.87 0 0 0-2.55 8.45l-1.91 9.47h-8.44l1-4.83q.44-2.18.85-4.09.41-1.91.75-3.68.34-1.77.68-3.68.68-3.88 1.12-6.4.44-2.52.75-4.16l.51-2.55c.13-.61.27-1.12.41-1.53a2.86 2.86 0 0 1 1.6-1.91 10.54 10.54 0 0 1 4.26-.61 2.41 2.41 0 0 1 1.57.41 1.29 1.29 0 0 1 .47 1 8.33 8.33 0 0 1-.1 1.12l-.34 1.84-.71 2.79-1.16 4.05.27.13a24.77 24.77 0 0 1 5.38-8.55q3-2.83 5.51-2.83a2.4 2.4 0 0 1 1.77.61 1.31 1.31 0 0 1 .31.54 4.09 4.09 0 0 1 .1 1.06 13.13 13.13 0 0 1-.2 2q-.21 1.26-.68 3.37m7.7 11.8q-.41 4.09 1 5.92 1.41 1.83 4.87 1.84a23.19 23.19 0 0 0 5.82-.72 39.79 39.79 0 0 0 4.31-1.32 16.31 16.31 0 0 1 .51 1.74 7.69 7.69 0 0 1 .24 1.74 2.59 2.59 0 0 1-.82 2.11 10.32 10.32 0 0 1-4 2.25 21.56 21.56 0 0 1-7.28 1 21.18 21.18 0 0 1-5.52-.68 11.36 11.36 0 0 1-4.36-2.21 10.17 10.17 0 0 1-2.86-4 15.42 15.42 0 0 1-1-5.92 25.8 25.8 0 0 1 1.43-8.89 19.25 19.25 0 0 1 4-6.64 17.08 17.08 0 0 1 6-4.15 19.51 19.51 0 0 1 7.49-1.43q6 0 8.85 2.45a8.56 8.56 0 0 1 1.33 11.27 10.93 10.93 0 0 1-4.36 3.27 25.21 25.21 0 0 1-6.81 1.8 66 66 0 0 1-8.89.54m9.4-13.21a6.55 6.55 0 0 0-3.2.78 9.14 9.14 0 0 0-2.52 2 12.63 12.63 0 0 0-1.84 2.83 18.24 18.24 0 0 0-1.16 3.06 31.1 31.1 0 0 0 9.43-1.4q3.17-1.19 3.17-4.05a3 3 0 0 0-1-2.42 4.33 4.33 0 0 0-2.86-.85m27.31.28a4.86 4.86 0 0 0-3.2.92 3.09 3.09 0 0 0-1.09 2.49 2.78 2.78 0 0 0 .82 2 10.45 10.45 0 0 0 2.08 1.64l2.69 1.6a14.06 14.06 0 0 1 2.69 2 10.08 10.08 0 0 1 2.08 2.79 8.48 8.48 0 0 1 .82 3.91 9.66 9.66 0 0 1-1 4.5 9.26 9.26 0 0 1-2.72 3.2 11.75 11.75 0 0 1-4.05 1.91 19.2 19.2 0 0 1-4.9.61 23.23 23.23 0 0 1-7-.88 9 9 0 0 1-3.64-1.84 2.11 2.11 0 0 1-.44-1.73 9 9 0 0 1 1.4-3.37q1.43.41 4 1a24.1 24.1 0 0 0 5 .54 6.06 6.06 0 0 0 3.54-1 3.27 3.27 0 0 0 1.36-2.86 3 3 0 0 0-.85-2.18 12.3 12.3 0 0 0-2.08-1.7l-2.72-1.63a13.8 13.8 0 0 1-2.72-1.94 10.34 10.34 0 0 1-2.08-2.69 8 8 0 0 1-.85-3.88 9 9 0 0 1 1-4.43 9.14 9.14 0 0 1 2.69-3 11.24 11.24 0 0 1 3.88-1.74 19.43 19.43 0 0 1 4.66-.54 17.11 17.11 0 0 1 6.4 1 10.57 10.57 0 0 1 3.13 1.74 2.15 2.15 0 0 1 .48 2.08 7.58 7.58 0 0 1-1.64 3q-.55-.2-1.46-.44l-2-.48-2.18-.41a14.2 14.2 0 0 0-2.14-.17m24.68-.02a4.87 4.87 0 0 0-3.2.92 3.1 3.1 0 0 0-1.09 2.49 2.8 2.8 0 0 0 .82 2 10.48 10.48 0 0 0 2.08 1.64q1.25.78 2.69 1.6a14 14 0 0 1 2.69 2 10.14 10.14 0 0 1 2.08 2.79 8.51 8.51 0 0 1 .82 3.91 9.68 9.68 0 0 1-1 4.5 9.26 9.26 0 0 1-2.73 3.2 11.76 11.76 0 0 1-4.05 1.91 19.22 19.22 0 0 1-4.9.61 23.22 23.22 0 0 1-7-.88 9 9 0 0 1-3.64-1.84 2.11 2.11 0 0 1-.44-1.73 9 9 0 0 1 1.4-3.37q1.43.41 4 1a24.11 24.11 0 0 0 5 .54 6.06 6.06 0 0 0 3.54-1 3.26 3.26 0 0 0 1.36-2.86 3 3 0 0 0-.85-2.18 12.4 12.4 0 0 0-2.08-1.7l-2.72-1.63a13.66 13.66 0 0 1-2.72-1.94 10.24 10.24 0 0 1-2.08-2.65 8 8 0 0 1-.85-3.88 9 9 0 0 1 1-4.43 9.14 9.14 0 0 1 2.69-3 11.25 11.25 0 0 1 3.88-1.74 19.44 19.44 0 0 1 4.66-.54 17.12 17.12 0 0 1 6.4 1 10.6 10.6 0 0 1 3.13 1.74 2.16 2.16 0 0 1 .48 2.08 7.59 7.59 0 0 1-1.64 3c-.36-.13-.85-.28-1.46-.44l-2-.48-2.18-.41a14.17 14.17 0 0 0-2.14-.17M104.83 71.96c-6.579-26.033-31.521-43.088-58.168-39.773S.012 58.148.012 85s20.003 49.498 46.65 52.813 51.589-13.739 58.168-39.773H82.37c-6.153 13.752-21.08 21.332-35.813 18.186S21.294 100.065 21.294 85s10.53-28.081 25.263-31.226 29.66 4.435 35.813 18.186zM194.76 85c0 17.634-14.296 31.93-31.93 31.93S130.9 102.634 130.9 85s14.296-31.93 31.93-31.93A31.93 31.93 0 0 1 194.76 85m21.29 0c0-29.393-23.827-53.22-53.22-53.22S109.61 55.607 109.61 85s23.827 53.22 53.22 53.22A53.22 53.22 0 0 0 216.05 85"/><path d="M222.96.01l-.01 135.6 23.32.01V0l-23.31.01zm80.79 50.93h0a28.65 28.65 0 0 1 27.57 20.82h-55.14a28.64 28.64 0 0 1 27.57-20.82m50.34 38.85a65.96 65.96 0 0 0 .22-5.31c.06-39.41-29.87-52.69-50.55-52.7h0c-20.68 0-50.61 13.29-50.55 52.7-.06 32.67 23.68 53.74 50.55 53.74h0c21.72 0 41.38-13.76 48.1-36.27h-22.9c-5.2 10.1-14.79 16.05-25.21 16.05h0c-14.09 0-26.69-10.88-28.92-28.22h57.84 0zm46.45 48.17c-26.9 0-42.33-13-42.33-35.56v-.46h21.06v.44c.93 12 8.49 17.89 23.14 17.89 12.18 0 19.76-5 19.76-13 0-6.79-5.15-9.32-15.28-11.86l-14.86-3.76c-11.07-2.72-18.47-5.92-23.26-10.08-5.28-4.57-7.73-10.45-7.73-18.51 0-9.23 3.55-17 10.28-22.49s16.77-8.55 28.66-8.55c12.31 0 22.65 3.05 29.89 8.83s10.93 13.78 10.93 23.33v.19h-20.83v-.18c-.56-9.73-7.72-14.87-20.69-14.87-10.21 0-16.56 4-16.56 10.54 0 7.22 6.28 10.1 16.41 12.42l12.6 2.82c20.71 4.81 31.94 10.94 31.94 29.53 0 10.2-3.88 18.64-11.22 24.39s-18.45 8.91-31.86 8.91"/></svg>