<svg id="Layer_1" data-name="Layer 1" xmlns="http://www.w3.org/2000/svg" viewBox="0 0 196.22 203.66"><defs><style>.cls-1{fill:#006546;}.cls-2{fill:#fff;}.cls-3{fill:#f60;}.cls-4{fill:#fe000c;}</style></defs><title>logo_7_eleven</title><rect class="cls-1" width="196.22" height="203.66"/><path class="cls-2" d="M151.64,209v7.64H104.58V209H69c-3.49,0-6.31-3.64-6.31-8.12L47.75,50.16A7.94,7.94,0,0,1,55.51,42H199.42a8,8,0,0,1,7.76,8.12L192.44,200.88c0,4.48-2.83,8.12-6.31,8.12Z" transform="translate(-29.14 -25.39)"/><path class="cls-3" d="M73.94,64.1H170.3c-9.49,3.56-38.37,23.11-45.59,36.25H74Z" transform="translate(-29.14 -25.39)"/><path class="cls-4" d="M150.74,168c-1.37,13.13-1.42,29.12-1.42,45.9H107.55a457.06,457.06,0,0,1,2.06-45.9Z" transform="translate(-29.14 -25.39)"/><polygon class="cls-1" points="41.73 112.49 57 112.49 57 118.53 50.31 118.53 50.31 123.62 57 123.62 57 128.71 50.31 128.71 50.31 133.8 57 133.8 57 139.63 41.73 139.63 41.73 112.49"/><polygon class="cls-1" points="77.24 112.49 92.51 112.49 92.51 118.53 85.83 118.53 85.83 123.62 92.51 123.62 92.51 128.71 85.83 128.71 85.83 133.8 92.51 133.8 92.51 139.63 77.24 139.63 77.24 112.49"/><polygon class="cls-1" points="116.36 112.49 131.63 112.49 131.63 118.53 124.94 118.53 124.94 123.62 131.63 123.62 131.63 128.71 124.94 128.71 124.94 133.8 131.63 133.8 131.63 139.63 116.36 139.63 116.36 112.49"/><polygon class="cls-1" points="68.44 133.8 75.12 133.8 75.12 139.63 59.86 139.63 59.86 112.49 68.44 112.49 68.44 133.8"/><polygon class="cls-1" points="94.07 112.49 98.32 139.63 109.36 139.63 114.53 112.49 108.14 112.49 104.8 130.83 101.56 112.49 94.07 112.49"/><rect class="cls-1" x="135.23" y="112.49" width="8.27" height="27.14"/><path class="cls-1" d="M172.63,145.94c.43-3,4.67-2.18,4.67-.48V165h8.27V142c0-4.88-6.89-6.84-12.88-2.54" transform="translate(-29.14 -25.39)"/><path class="cls-4" d="M154.62,134.06c.84-10.39,15.05-27.35,28.83-31.8V62.19c-37.9,17-62.55,42.61-67.88,71.77Z" transform="translate(-29.14 -25.39)"/><path class="cls-1" d="M165.6,179.52a5.47,5.47,0,1,1,1.61-3.88,5.28,5.28,0,0,1-1.61,3.88m-7.22-7.21a4.72,4.72,0,1,0,3.34-1.38,4.53,4.53,0,0,0-3.34,1.38m3.24.3a4.64,4.64,0,0,1,1.64.22,1.5,1.5,0,0,1,.94,1.53,1.32,1.32,0,0,1-.58,1.19,2.2,2.2,0,0,1-.87.29,1.43,1.43,0,0,1,1,.59,1.64,1.64,0,0,1,.33.93v.44c0,.14,0,.29,0,.45a.89.89,0,0,0,.05.31l0,.08h-1a.35.35,0,0,0,0-.06.5.5,0,0,0,0-.07l0-.19v-.48a1.47,1.47,0,0,0-.57-1.38,2.58,2.58,0,0,0-1.19-.19h-.84v2.37h-1.05v-6Zm1.16,1a2.87,2.87,0,0,0-1.3-.22h-.91v2.15h1a3,3,0,0,0,1-.13.92.92,0,0,0,.63-.93.9.9,0,0,0-.4-.87" transform="translate(-29.14 -25.39)"/></svg>