<svg xmlns="http://www.w3.org/2000/svg" viewBox="0 0 194.49 194.49" xmlns:v="https://vecta.io/nano"><defs><linearGradient id="A" x1="73.078" y1="93.288" x2="155.041" y2="24.593" gradientUnits="userSpaceOnUse"><stop offset="0" stop-color="#008a3e"/><stop offset=".31" stop-color="#008a3e"/><stop offset=".6" stop-color="#93c02d"/><stop offset=".83" stop-color="#008f3e"/><stop offset="1" stop-color="#008a3e"/></linearGradient><radialGradient id="B" cx="86.2" cy="68.13" r="62.57" gradientTransform="translate(8.03) scale(0.91 1)" gradientUnits="userSpaceOnUse"><stop offset="0" stop-color="#ffcf00"/><stop offset=".2" stop-color="#ffcf00"/><stop offset=".35" stop-color="#f8a904"/><stop offset=".74" stop-color="#e74810"/><stop offset=".88" stop-color="#e74616"/><stop offset="1" stop-color="#e64221"/></radialGradient></defs><path d="M1 1h192.5v192.5H1z" fill="#000f9f"/><path d="M48.15 179.84L32.87 141a7.35 7.35 0 0 1-.48-2.58 4.59 4.59 0 0 1 1.61-3.57 5.5 5.5 0 0 1 3.76-1.43c2 0 3.61 1.14 4.73 3.41l10.78 29 10.82-29q1.61-3.41 4.73-3.41a5.5 5.5 0 0 1 3.78 1.43 4.6 4.6 0 0 1 1.6 3.58 6.82 6.82 0 0 1-.5 2.57l-15.24 38.84a8.31 8.31 0 0 1-1.93 3 4.62 4.62 0 0 1-3.25 1 4.56 4.56 0 0 1-3.21-1 8.3 8.3 0 0 1-1.92-3zm28.85-1.4v-39.61a5.28 5.28 0 0 1 1.49-4 5.64 5.64 0 0 1 7.52 0 5.33 5.33 0 0 1 1.44 4v39.61a5.34 5.34 0 0 1-1.44 4 5.67 5.67 0 0 1-7.52 0 5.3 5.3 0 0 1-1.49-4zm16.78-.3V139a4.86 4.86 0 0 1 1.54-3.83 5.76 5.76 0 0 1 4-1.38h13.37a14.26 14.26 0 0 1 6.6 1.53 11.75 11.75 0 0 1 6.5 10.72q0 7.24-6.46 10.23v.14a12.18 12.18 0 0 1 4.11 1.34 13 13 0 0 1 3.42 2.64 11.38 11.38 0 0 1 2.24 3.61 11.61 11.61 0 0 1 .78 4.32q0 7.21-4.41 11.17-4.41 3.96-11.75 3.94H99.36a5.63 5.63 0 0 1-4-1.46 5 5 0 0 1-1.58-3.83zM104.22 143v10.45h5.45a5.8 5.8 0 0 0 4.12-1.45 5.28 5.28 0 0 0 1.53-4 4.47 4.47 0 0 0-1.59-3.68 6.21 6.21 0 0 0-4.06-1.29zm0 19.63v11.61h8.24a6.85 6.85 0 0 0 4.74-1.62 5.69 5.69 0 0 0 1.83-4.49 4.82 4.82 0 0 0-1.89-4 8.82 8.82 0 0 0-5.53-1.49zm29.57 15.57v-38.31a6.61 6.61 0 0 1 1.4-4.39 5 5 0 0 1 4.05-1.67h17.28a4.65 4.65 0 0 1 3.66 1.42 5.15 5.15 0 0 1 .7 5.77 4.72 4.72 0 0 1-1.68 1.76 5.06 5.06 0 0 1-2.68.68h-12.28v10.14h11.43a5 5 0 0 1 3.78 1.4 5 5 0 0 1 0 6.79 4.92 4.92 0 0 1-3.75 1.44h-11.46v10.58h12.9a4.73 4.73 0 0 1 3.69 1.42 4.91 4.91 0 0 1 1.27 3.42 5.12 5.12 0 0 1-.57 2.28 4.43 4.43 0 0 1-1.71 1.83 5 5 0 0 1-2.68.68h-18a5.42 5.42 0 0 1-3.85-1.44 5 5 0 0 1-1.5-3.8z" fill="#fff"/><path d="M72.58 88.77a29.47 29.47 0 0 1-9.21-2.37l-.63-.31-.74-.38-.59-.34-.08-.05-.57-.38C58.7 83.5 56.3 81.37 56 77.62v-.83-.7c.1-4.46 2.51-7.88 4.85-11.19l.18-.26.88-1.12.89-1 .94-1 1.15-1.18a1.38 1.38 0 0 1 1.11-.49 1.41 1.41 0 0 1 .88.42 1.74 1.74 0 0 1 .14 2.21l-.7.94-.65.91-.61.93-.57.93a10.16 10.16 0 0 0-1.49 5.7l.05.48.1.51A6.82 6.82 0 0 0 66.31 77l.47.3 1 .54 1 .46 1 .39a33.65 33.65 0 0 0 6.77 1.41h.55a54.17 54.17 0 0 0 7.19.19l2.29-.13 2.28-.2a125.35 125.35 0 0 0 24.6-5.46l2.18-.72 2.18-.74 2.15-.79 2.13-.82 2.13-.87 2.08-.9a119 119 0 0 0 19.8-11.31l1.8-1.35 1.76-1.42a42.16 42.16 0 0 0 8.05-9.13l.56-.94.47-.95.19-.44.17-.46.13-.44.1-.46.08-.49v-.48-1.07-.45l-.05-.46-.08-.44-.12-.44-.15-.44-.18-.42-.23-.4-.29-.46a9.48 9.48 0 0 0-4.88-3.43l-1.07-.33-1.08-.25-1.04-.2-1.23-.2a1.59 1.59 0 0 1-1.26-1.8 1.54 1.54 0 0 1 1.5-1.49h1.66l1.41.07 1.43.13 1.42.22c2.14.39 7.44 1.63 10.73 4.79l.06.06.47.51.48.57.08.14a9.83 9.83 0 0 1 1.87 8.56l-.17.69a.56.56 0 0 1 0 .12l-.23.72c-.01.01-.25.7-.25.72l-.26.63c-1.55 3.64-4.57 7.48-9.21 11.73l-1 .92-1.08.9a118.64 118.64 0 0 1-28.45 16.81l-2.54 1-2.58 1-2.57.93-2.6.9-2.62.86-2.62.82a124.67 124.67 0 0 1-27.4 5.42l-2.38.16-2.75.11h-1.4a52.66 52.66 0 0 1-5.63-.23z" fill="url(#A)"/><path d="M120.17 72.16l3.64-9.08 1.69-4.26L127 55l1.44-3.84 1.36-3.85 1.26-3.89 2.39-7.86 1.13-3.88.47-1.88.18-.89.13-.92.1-.94v-.91-.31c-.17-3.91-6.15-4-6.83-4h-.82a2.29 2.29 0 0 1-2.23-2 2.33 2.33 0 0 1 1.72-2.6l3.64-.83 4.68-1 1-.19a17.22 17.22 0 0 1 3.12-.33 9.91 9.91 0 0 1 2 .2l.66.15h.16l.54.19a8.72 8.72 0 0 1 3.9 2.71l.06.08a1.76 1.76 0 0 1 .12.2l.26.44a2.12 2.12 0 0 1 .18.37l.19.47a.42.42 0 0 0 0 .1l.06.22.13.55a1.86 1.86 0 0 1 .06.34l.06.57a.81.81 0 0 1 0 .16 15.11 15.11 0 0 1-.46 4l-.08.35a1.55 1.55 0 0 1-.08.23l-.56 2.08c0 .01-.24.74-.24.75l-.41 1.13-.43 1.13-.86 2.23-1.91 4.29-1.77 4.25-1.72 4.32-5.09 13.21-1.73 4.4-1.17 3.09-5.33 2.57-2.08.9-2.13.87zM58.84 24.88l.73.29.77.32.75.34.71.37.71.39 1.41.88 1.36 1 1.34 1 1.29 1.1 1.31 1.16 1.27 1.18 1.2 1.2 1.19 1.23L74 36.6l1.06 1.3 1 1.34 1 1.39c5.25 8.08 8.65 18.25 11.42 27.14l1 3.38 2 6.79.45 1.66a123.87 123.87 0 0 0 17.51-3.88.85.85 0 0 0 0-.23l-.1-.43-1-4.13-1.08-4.12a132.36 132.36 0 0 0-16.58-37.16l-1.21-1.74-1.32-1.75c-4-5.17-9.67-11.44-18.37-14l-1-.3-1-.27h-.12l-1.08-.23-1.07-.19a33.69 33.69 0 0 0-5.66-.5 28.51 28.51 0 0 0-5.26.49 29.06 29.06 0 0 0-6.8 2.18l-.94.45h-.06c-.2.09-.5.26-1 .51-7 3.83-12.3 9.79-16.83 18.76l-1 1.95-.91 2-1.46 3.25a2.39 2.39 0 0 0 .85 3 2.05 2.05 0 0 0 1.14.34h.38a2.14 2.14 0 0 0 1.24-.73l1.8-2.29L33.34 38l1.2-1.29 1.18-1.24 1.22-1.23L38.17 33l1.26-1.16 1.32-1.15 1.31-1.11 1.34-1.08 1.38-1.05 1.36-.95.67-.41.71-.4.69-.35L49 25a13.2 13.2 0 0 1 2.64-.78 11.8 11.8 0 0 1 2.3-.22 14.67 14.67 0 0 1 4.14.63zm66.84 54l-2.58 1-2.57.93-2.6.9-.84.28-2.09 5.37-.65 1.48-.63 1.48a.14.14 0 0 0 0 .06c-.1.23-.26.66-.62 1.61v.05l-1.49-8.36a133.32 133.32 0 0 1-17.3 4l2.63 13.57.73 3.71.68 3.73.62 3.74.56 3.74 1 7.46a2.28 2.28 0 0 0 1.28 1.79 2 2 0 0 0 .89.21 2.28 2.28 0 0 0 .36 0 2.15 2.15 0 0 0 .77-.31l1.34-.84.69-.39.71-.35.77-.35.74-.3 1.65-.61a2.28 2.28 0 0 0 1.3-1.3l7.5-18.76 9.68-24.57z" fill="url(#B)"/></svg>