<svg xmlns="http://www.w3.org/2000/svg" viewBox="0 0 544.25 546.21"><defs><style>.cls-1{fill:#e20614;}.cls-2{fill:#2e2c84;}</style></defs><title>Asset 1</title><g id="Layer_2" data-name="Layer 2"><g id="Layer_1-2" data-name="Layer 1"><path class="cls-1" d="M55.55,461.3,0,543.51H33.71l8.22-13.39H70.7v13.39H99.6V461.3Zm-2.82,51.21,18-29.13v29.13Zm189.44,31-8-82.21H190.5l-13,45.22L164.9,461.3H120.74l-8,82.21h29l4.11-56.26,15.62,56.26H191l16.68-56.61,4.82,56.61Zm70-82.33H255.33v82.33h29.36V522.14h22.9c24.66,0,37.23-12.8,37.23-30.65,0-18.09-10.92-30.3-32.65-30.3M300,503.46H284.69v-22H301.6c8.46,0,13.15,4.11,13.15,10.8,0,6.93-5.17,11.16-14.8,11.16m104.88,42.75c32.77,0,53.56-19.73,53.56-44.28,0-25-20.79-43.34-53.44-43.34-33,0-53.67,18.32-53.67,43.34,0,24.43,20.67,44.28,53.56,44.28m0-23.84c-13.51,0-22.08-8.34-22.08-20.2s8.57-19.73,22.08-19.73,22,8,22,19.73-8.57,20.2-22,20.2m93.25-2.82V461.3H468.73v82.21h75.52v-24H498.09"/><rect class="cls-2" x="464.07" width="80.18" height="381.11"/><polyline class="cls-1" points="206.52 381.11 464.07 0 367.29 0 109.74 381.11 206.52 381.11"/></g></g></svg>