<svg xmlns="http://www.w3.org/2000/svg" viewBox="0 0 772 439" xmlns:v="https://vecta.io/nano"><path d="M643 381.07h-44.44c-4.87 0-9.75-.12-14.61.06-2.3.08-3.22-.62-3.73-2.93-1.91-8.62-4.08-17.18-6.2-26-1-.08-2-.23-2.92-.23-14.11 0-28.22 0-42.33-.05-2.34 0-3.46.46-4.07 3-2.08 8.68-4.53 17.27-6.86 26h-61.66l3.72-11.76q28.37-86.52 56.7-173c.81-2.48 1.81-3.46 4.6-3.44l61.06.08h3.21zm-91.87-132.92h-1.57l-12.81 62.23h26.71l-12.33-62.23zM769 340.62c-1.26 5.16-4.6 18-15.88 28.25-8 7.26-16 10.43-25.7 12.36-25.88 5.16-51.58 4.63-75.59-8.76-3.4-1.89-4.93-3.82-4.84-8 .33-14.84.13-29.68.13-45.39l3.07 2.52c9.21 7.44 19.05 13.9 31 15.51a53 53 0 0 0 18.16-.35c11.39-2.52 14.48-14.35 5.92-22.27a53.11 53.11 0 0 0-14.06-8.9c-11.19-5.09-21.77-11-31-19.25-9.85-8.82-15.84-19.24-14.88-33.11.62-8.79-.38-17.66 2.82-26.22 5.75-15.33 17.23-25.01 31.85-30.72 27.2-10.52 54-7.89 80 4.78 3 1.48 4.24 3.32 4.18 6.87l-.1 44.71c-1-.68-1.82-1.12-2.54-1.64-7.1-5.12-14.4-10.14-23.21-11.49a61.38 61.38 0 0 0-17.12-.31c-9.74 1.3-14.22 11.81-9.14 20.29 3.62 6 9.23 9.66 15.57 12.29 15.45 6.4 21.86 12.29 25.43 15.44A51.87 51.87 0 0 1 769 340.62zm-579.17 40.7h-44.45c-4.87 0-9.75-.13-14.61.05-2.3.08-3.22-.62-3.73-2.93-1.91-8.62-4.08-17.18-6.2-26-1-.08-2-.23-2.93-.23-14.11 0-28.22 0-42.33-.06-2.33 0-3.45.46-4.06 3-2.08 8.68-4.53 17.28-6.86 26H3l3.72-11.77q28.37-86.51 56.7-173c.81-2.48 1.81-3.45 4.6-3.43l61.05.08h3.22l57.54 188.29zM98 248.4h-1.57l-12.82 62.23h26.72L98 248.4z" fill="#010101"/><path d="M620.6 437.19l5.9-18.86 7.84-24.5c.36-1.08 1.8-2.55 2.75-2.55l47.92-.07c.2 0 .41.21.87.46l-2.24 7.3h-29.12c-7.87 0-7.87 0-10.15 7.52-.24.8-.33 1.65-.57 2.89h35.27l-2.31 7.67c-10.81 0-21.52.13-32.24-.09-2.94-.06-4.19 1-4.84 3.62S638 426 637 429.28h39.85c-.78 2.58-1.27 4.59-2 6.5a2.48 2.48 0 0 1-1.82 1.35l-52.43.06zm-21.3-45.89h14.52c-4.17 11.72-7.87 23.14-12.34 34.25-2.56 6.38-8.7 9.1-15 10.69a54.17 54.17 0 0 1-27.41.16 28.64 28.64 0 0 1-9.17-4.71 8.38 8.38 0 0 1-3.43-9.29c3.11-10.47 6.57-20.84 9.86-31.13h14.35l-8.45 25.6-1.92 5.65c-1.27 3.38.28 5.36 3.35 6.22a30.23 30.23 0 0 0 19.1-.54c4.09-1.53 6.12-5 7.42-8.89l8.16-25.2c.29-.93.66-1.86.96-2.81zm-64.01-.15a6 6 0 0 1 0 1.22c-1.93 6.61-1.93 6.61-8.89 6.61-8 0-16 .14-24-.08-2.68-.07-3.78.82-4.32 3.28s-1.38 4.75-2.22 7.54h33.19a40.53 40.53 0 0 0-1.48 5c-.39 2.45-1.65 3.11-4.08 3.07-9-.14-18 .08-27-.14-2.7-.06-3.67.91-4.34 3.29-1.51 5.37-3.28 10.68-5 16.12H473l5.35-16.91 8.37-26.31c.36-1.08 1.8-2.54 2.75-2.55l45.82-.14zm187.95.02l-11.94 38.16h34.89a64.31 64.31 0 0 1-1.87 6.27 2.89 2.89 0 0 1-2.08 1.53l-47.61.06 3.31-10.59 10.23-32.73c.6-2 1.37-2.88 3.59-2.76 3.59.21 7.24.06 11.48.06z" fill="#008f1d"/><path d="M314.34 193.11h-150.2v43.07h44.11V381h62V235.65h44.11zm12.08.43l-2.13 187.54h125.63v-42.42h-65.09V193.54" fill="#010101"/><path d="M271,144.51C272,67,342,4,410.51,3c77-1.12,139.5,63.36,139.5,141.5S487.56,286,410.51,286,270,222.66,271,144.51Z" fill="#008f1d"/><path d="M287 146c1-74 61.27-127.09 122.5-128 68.87-1 127.44 56.16 126.5 126-1 75-57.13 128-126 128s-123.93-56.14-123-126z" fill="#fff"/><path d="M374.26 38.45c13.82-2.6 26.25.47 38 6.9 11 6 20.05 14.27 28.36 23.49C451 80.32 464.76 100.93 469 111.53l-53.58 22.34-41.16-95.42zm87.52 206.92l-40-96.68 53.15-22.59 5.61 23.73c3.26 16.06 5 32.29 4 48.71-.66 10.52-2.61 20.76-7.5 30.24a39.62 39.62 0 0 1-15.26 16.59zM361.3 175.35l46.63-21.59 44.4 96.13c-7.69.62-14.53-.91-21.22-3.2-15.23-5.2-27.68-14.57-38.67-26.06-12.76-13.32-22.6-28.63-31.14-45.28zm41.28-37.22L356.08 163c-2.6-11.94-5.51-23.37-7.5-34.95-3-17.64-3.91-35.4-.41-53.14 2.25-11.37 6.3-21.94 14.27-31.45zM343.4 55.38c-10.48 37.42-14.54 73.6 4.32 109.08L307 184.94c-7-23.66-8.77-47.38-2.66-71.11 6.03-23.45 19.33-42.51 39.06-58.45zm-31.46 140.23l41.17-15.94c18.75 31.34 39.24 61 74.3 76.44-10.8 4-48-2.56-67.27-12-21.14-10.37-41.04-30.33-48.2-48.5zm173.19-73.35L516 107.59c6.29 21.36 7.54 42.76 2.85 64.3s-15.66 39.8-32.2 56c4.94-35.89 10.07-70.73-1.52-105.63zm-75.57-89.9c39.32-1.73 82.44 22.38 101.09 63.11l-31.55 14.15c-18.44-30.06-36.86-59.89-69.54-77.26z" fill="#008f1d"/></svg>