<svg xmlns="http://www.w3.org/2000/svg" viewBox="0 0 366 179" xmlns:v="https://vecta.io/nano"><path d="M2 2h362v175H2z" fill="#1961ac"/><path d="M94.19,110.47H73.46a23.36,23.36,0,0,1-6.33-.72,10,10,0,0,1-4.66-3.34c-1.42-1.75-2.19-4.43-2.32-8.06v-30H71.52V94.21a7.59,7.59,0,0,0,1.42,5q1.41,1.71,5.49,1.71h3.3V68.37H93.17v32.52h3.6c3,0,4.93-.53,5.75-1.6a8.26,8.26,0,0,0,1.29-5.08V68.37h11.3v30q0,5.88-2.77,9T102,110.48Z" fill="#fff"/><path d="M130.52,94.06v16.41H120.09v-30a20.33,20.33,0,0,1,.63-5.34,8.55,8.55,0,0,1,2-3.77,9.06,9.06,0,0,1,3.79-2.25,19,19,0,0,1,5.81-.76h15.09a19.83,19.83,0,0,1,5.78.72A8.82,8.82,0,0,1,157,71.31a8.59,8.59,0,0,1,2.05,3.74,19.44,19.44,0,0,1,.63,5.22v30.2H149.31V94.06Zm18.78-9.58a10.75,10.75,0,0,0-.29-2.72,5.12,5.12,0,0,0-1-2.07,4.44,4.44,0,0,0-2-1.31,9.56,9.56,0,0,0-3.13-.44H137a9.62,9.62,0,0,0-3.14.44,4.42,4.42,0,0,0-2,1.31,5,5,0,0,0-1.05,2.07,11.23,11.23,0,0,0-.3,2.72Z" fill="#e40521"/><path d="M189.81 94.06v16.41h-10.67v-30a19.93 19.93 0 0 1 .64-5.34 8.53 8.53 0 0 1 2.1-3.77 9.08 9.08 0 0 1 3.88-2.25 19.86 19.86 0 0 1 5.94-.76h28V78h-23.3a10 10 0 0 0-3.21.43 4.68 4.68 0 0 0-2 1.31 5 5 0 0 0-1.07 2.07 10.89 10.89 0 0 0-.3 2.73h29.88v9.58h-29.89zM265 98.35q0 5.88-2.62 9-2.62 3.12-9.76 3.12H237q-5.93 0-9.21-3.19-3.28-3.19-3.36-8.93v-30h10.73v25.86a7.89 7.89 0 0 0 1.35 5q1.34 1.71 5.18 1.71h6q4.27 0 5.43-1.6a8.62 8.62 0 0 0 1.22-5.08V68.37H265zm15.33-4.29a12 12 0 0 0 .3 2.94 5 5 0 0 0 1.07 2.15 4.57 4.57 0 0 0 2 1.3 9.77 9.77 0 0 0 3.21.44h23.29v9.58h-28a19.88 19.88 0 0 1-6-.76 9.28 9.28 0 0 1-3.88-2.25 8.53 8.53 0 0 1-2.1-3.77 19.93 19.93 0 0 1-.64-5.34V80.49a19.93 19.93 0 0 1 .64-5.34 8.53 8.53 0 0 1 2.1-3.77 9.08 9.08 0 0 1 3.88-2.25 19.88 19.88 0 0 1 6-.76h28V78h-23.3a9.93 9.93 0 0 0-3.2.43 4.68 4.68 0 0 0-2 1.31 4.77 4.77 0 0 0-1.07 2.07 10.89 10.89 0 0 0-.31 2.73h29.88v9.58h-29.87zm75.14 10.17v6.24h-28a19.81 19.81 0 0 1-5.94-.76 9.28 9.28 0 0 1-3.88-2.25 8.53 8.53 0 0 1-2.1-3.77 19.93 19.93 0 0 1-.64-5.34v-30h10.73v25.86a8 8 0 0 0 1.34 5c.9 1.14 2.62 1.71 5.19 1.71h23.3z" fill="#fff"/><path d="M90.39 32.5Q82 31.23 73.67 29.8h-.08a3.79 3.79 0 0 0-2.5.23 4.36 4.36 0 0 0-1.91 1.85A14.25 14.25 0 0 0 67.76 38a33.81 33.81 0 0 1-.37 3.63c-.08.63-.27 1.24-.41 1.86a10.16 10.16 0 0 1-.78 1.84 4.88 4.88 0 0 1-3 2.51 7.2 7.2 0 0 1-3.39-.06c-2-.42-4-1.43-5.53-1.41a7.11 7.11 0 0 0-4.6 2.21c-2.83 2.65-5.3 6.46-7.59 9.95L40.4 61.4c-.46 1-.88 1.84-1.29 2.81s-.73 2-1.07 3.11c-.15.52-.39 1.14-.6 1.72a11 11 0 0 1-.79 1.75 18.48 18.48 0 0 1-2.07 3.11c-.79.84-1.57 1.63-2.41 2.45-1.62 1.47-3.31 2.76-4.92 4a52.77 52.77 0 0 0-8.84 8.5 21.65 21.65 0 0 0-3 5.22 14.31 14.31 0 0 0-.94 5.82 17.38 17.38 0 0 0 1.48 5.87c.79 1.83 2 3.79 3 5.75l1.62 2.94 1.54 3.09c.52 1 1 2.06 1.47 3.14s1 2.13 1.34 3.27.8 2.26 1.1 3.45.63 2.38.78 3.58c.43 2.4.63 4.74 1 7l.22 1.71c.05.42.19 1.11.28 1.64a17.92 17.92 0 0 0 .84 2.93c.72 1.85 1.9 3.3 3.31 3.67a3.27 3.27 0 0 0 2.22-.16 6.05 6.05 0 0 0 2.16-1.45c1.27-1.25 2.54-3.32 4-4.95a31.28 31.28 0 0 1 10-8 27 27 0 0 1 11.75-2.77 38.06 38.06 0 0 1 11.73 1.91 40.83 40.83 0 0 0-11.69-.83 27.32 27.32 0 0 0-11.13 3.42 31.34 31.34 0 0 0-9.12 8.09c-.66.83-1.26 1.68-1.88 2.57a18.39 18.39 0 0 1-2.12 2.77 8.42 8.42 0 0 1-2.88 2.08 5.41 5.41 0 0 1-3.58.37 6.21 6.21 0 0 1-3.22-2 11 11 0 0 1-1.18-1.54 21.2 21.2 0 0 1-.88-1.71 21.37 21.37 0 0 1-1.16-3.66c-.12-.6-.24-1.05-.36-1.78l-.26-1.75c-.4-2.3-.64-4.61-1.07-6.77-.16-1.12-.51-2.13-.75-3.19s-.7-2-1-3.07-.87-2-1.3-3-.92-2-1.44-3l-1.51-2.91-1.63-2.91c-1.07-2-2.22-3.79-3.26-6.1a22.17 22.17 0 0 1-1.9-7.46 19.45 19.45 0 0 1 1.2-7.82 24.64 24.64 0 0 1 3.64-6.32 55.27 55.27 0 0 1 9.51-9c3.25-2.63 6.73-5 8.51-8.33.91-1.59 1.43-3.88 2.4-6.16.48-1.11 1.06-2.25 1.61-3.3l1.73-2.84a91.46 91.46 0 0 1 3.92-5.52 34.38 34.38 0 0 1 4.57-5 9.48 9.48 0 0 1 6.25-2.62 7.12 7.12 0 0 1 1.71.29l.36.1.24.07.18.07.72.26c.94.34 1.86.67 2.75.92a5.41 5.41 0 0 0 2.46.21 2.55 2.55 0 0 0 1.73-1.32 7.36 7.36 0 0 0 .59-1.26c.13-.51.3-1 .4-1.51s.21-1 .27-1.59l.19-1.72a15.46 15.46 0 0 1 2-7.07 5.69 5.69 0 0 1 2.71-2.33 4.77 4.77 0 0 1 3.36.05h-.08q8.27 2 16.51 4.13" fill="#e40425"/></svg>