<svg id="Layer_1" data-name="Layer 1" xmlns="http://www.w3.org/2000/svg" viewBox="0 0 67.38 67.38"><defs><style>.cls-1{fill:#fff;}.cls-2{fill:#e40520;}.cls-3{fill:#004d67;}</style></defs><title>logo_caltex</title><polyline class="cls-1" points="33.8 0.01 26.26 23.27 1.78 23.28 21.56 37.66 13.99 60.96 33.8 46.57 53.61 60.96 46.04 37.67 65.85 23.28 41.36 23.28"/><path class="cls-2" d="M683.17,350.5a33.69,33.69,0,1,1-19.81,61l19.81-14.4L703,411.49l-7.56-23.28,19.81-14.39-44.29,14.39,4.68-14.39h15.13Z" transform="translate(-649.4 -350.5)"/><path class="cls-3" d="M683.17,350.5a33.69,33.69,0,0,0-19.81,61l7.57-23.29-19.76-14.43h24.48Z" transform="translate(-649.4 -350.5)"/></svg>