<svg xmlns="http://www.w3.org/2000/svg" viewBox="0 0 332.67 218.67" xmlns:v="https://vecta.io/nano"><path d="M332.67 109.33c0 60.38-74.47 109.33-166.34 109.33S0 169.71 0 109.33 74.46 0 166.33 0s166.34 49 166.34 109.33z" fill="#243588"/><path d="M166.17 125.79h-1.76c-69.5-.75-76.33-42.75-74.25-53.5 5.12-25.06 35.45-33.14 59.5-33.14 15.54 0 28.46 3.37 30.26 7.72 4.1 9.93-12 15.5-12 15.5a99.87 99.87 0 0 1 10 3.17l5.15-3.05a45.21 45.21 0 0 0-5.63-1.12c11.75-4.5 16.5-12.74 16-19.25-.44-5.69-7.76-14-32-14-3.47 0-7.29.17-11.49.55-26.39 2.37-43.78 13.42-50 18 13-16.68 38.41-28 67.6-28 42.45 0 76.87 24 76.87 53.5 0 16.36-10.57 31-27.2 40.82 4.46-9.8 4.42-18.51 1.62-25.32-4.23 2.36-10 6.34-15.17 9.33-3.28 27.16-30.28 28.87-37.5 28.87zM199 69.33l-7.54 3.38a27.73 27.73 0 0 1 9.92 9.79c2.6-.9 7.34-3.77 9-4.75-4.42-4.58-6.59-6.42-11.38-8.41zm-12.83-5.42l-5.54 3.28c2.14.89 4.38 1.91 6.58 3.07l7.21-3.21a76.75 76.75 0 0 0-8.25-3.15z" fill="#ffe700"/><path d="M42.71 155.61h4a4.42 4.42 0 0 0 2.87-.72 2.43 2.43 0 0 0 .84-1.94 2.26 2.26 0 0 0-.83-1.82 4.63 4.63 0 0 0-2.9-.69h-4v5.17zm0-10h3.43a3.94 3.94 0 0 0 2.57-.64 2.31 2.31 0 0 0 .72-1.84 2.18 2.18 0 0 0-.72-1.74 3.88 3.88 0 0 0-2.52-.63h-3.48v4.84zm-8-10h14.77a8 8 0 0 1 5.67 1.83 5.92 5.92 0 0 1 2 4.53 5.71 5.71 0 0 1-1.41 3.88 6.29 6.29 0 0 1-2.75 1.71 7.15 7.15 0 0 1 4.05 2.27 6.25 6.25 0 0 1 1.3 4 7 7 0 0 1-.92 3.57 6.81 6.81 0 0 1-2.53 2.51 8.34 8.34 0 0 1-3 .84 34.57 34.57 0 0 1-3.54.35h-13.6v-25.53zm40.63 14.6a4.73 4.73 0 0 0-1.1-2.94 3.47 3.47 0 0 0-5.06.45 4.92 4.92 0 0 0-.82 2.49zm7.21 3.4H68.34a4.59 4.59 0 0 0 .92 2.54 3.36 3.36 0 0 0 2.68 1.2 4 4 0 0 0 2-.52 4.64 4.64 0 0 0 1.24-1.17l7 .64a10 10 0 0 1-3.87 4 14 14 0 0 1-6.5 1.21 13.29 13.29 0 0 1-5.78-1 8.49 8.49 0 0 1-3.49-3.29 10 10 0 0 1-1.38-5.3 9.31 9.31 0 0 1 2.78-7 10.59 10.59 0 0 1 7.67-2.68 13.66 13.66 0 0 1 6.27 1.2 8.11 8.11 0 0 1 3.5 3.48 12.73 12.73 0 0 1 1.2 5.94v.8zm11.81-18.04v7h3.9v5.19h-3.9v6.55a3.53 3.53 0 0 0 .23 1.56 1.3 1.3 0 0 0 1.22.59A7.8 7.8 0 0 0 98 156l.52 4.89a23 23 0 0 1-4.91.58 8.53 8.53 0 0 1-3.9-.68 4.13 4.13 0 0 1-1.86-2.06 12.11 12.11 0 0 1-.6-4.48v-6.51h-2.61v-5.14h2.61v-3.4l7.11-3.64zm15.83 0v7h3.9v5.19h-3.9v6.55a3.52 3.52 0 0 0 .23 1.56 1.3 1.3 0 0 0 1.22.59 7.8 7.8 0 0 0 2.2-.45l.52 4.89a23 23 0 0 1-4.91.58 8.52 8.52 0 0 1-3.9-.68 4.12 4.12 0 0 1-1.85-2.06 12.1 12.1 0 0 1-.6-4.48v-6.51h-2.61v-5.15h2.61v-3.4l7.11-3.64zm20.6 14.64a4.73 4.73 0 0 0-1.11-2.94 3.47 3.47 0 0 0-5.06.45 4.92 4.92 0 0 0-.82 2.49zm7.21 3.4h-14.21a4.61 4.61 0 0 0 .92 2.54 3.36 3.36 0 0 0 2.68 1.2 4 4 0 0 0 2-.52 4.64 4.64 0 0 0 1.24-1.17l7 .64a10 10 0 0 1-3.87 4 14 14 0 0 1-6.5 1.21 13.29 13.29 0 0 1-5.78-1 8.49 8.49 0 0 1-3.49-3.29 9.94 9.94 0 0 1-1.38-5.3 9.31 9.31 0 0 1 2.78-7 10.59 10.59 0 0 1 7.67-2.68 13.65 13.65 0 0 1 6.27 1.2 8.12 8.12 0 0 1 3.5 3.48 12.74 12.74 0 0 1 1.2 5.94v.8zm3.33-11.01H148v3a7.25 7.25 0 0 1 2-2.71 4.17 4.17 0 0 1 2.52-.74 7.49 7.49 0 0 1 3.43 1l-2.19 5.05a5.58 5.58 0 0 0-2-.52 2.45 2.45 0 0 0-2.16 1.15q-1.1 1.62-1.1 6.06v6.2h-7.12V142.6zm45.13 8.05l6.92 2.09a12.76 12.76 0 0 1-2.2 4.86 9.52 9.52 0 0 1-3.72 2.94 13.9 13.9 0 0 1-5.65 1 16.42 16.42 0 0 1-6.8-1.21 10.79 10.79 0 0 1-4.55-4.26 14.42 14.42 0 0 1-1.92-7.8q0-6.34 3.37-9.74 3.37-3.4 9.54-3.4a13 13 0 0 1 7.58 2 11.45 11.45 0 0 1 4.1 6l-7 1.55a6 6 0 0 0-.77-1.71 4.52 4.52 0 0 0-1.62-1.39 5 5 0 0 0-6.25 1.67 9.16 9.16 0 0 0-1.08 5q0 4.24 1.29 5.82a5.09 5.09 0 0 0 7 .3 7.85 7.85 0 0 0 1.68-3.69zm10.28-15.08h7.09V145a9.54 9.54 0 0 1 2.87-2.14 8.16 8.16 0 0 1 3.38-.64 6 6 0 0 1 4.55 1.76q1.67 1.76 1.66 5.4v11.72h-7.12v-10.17a3.7 3.7 0 0 0-.64-2.46 2.3 2.3 0 0 0-1.81-.72 2.57 2.57 0 0 0-2.09 1 5.67 5.67 0 0 0-.8 3.5v8.88h-7.09v-25.56zm30.02 16.31a5.58 5.58 0 0 0 1 3.66 3.28 3.28 0 0 0 5 0 5.77 5.77 0 0 0 1-3.74 5.45 5.45 0 0 0-1-3.58 3.09 3.09 0 0 0-2.46-1.18 3.21 3.21 0 0 0-2.56 1.19 5.52 5.52 0 0 0-1 3.63zm-7.11 0a9.26 9.26 0 0 1 2.86-7 10.67 10.67 0 0 1 7.72-2.74q5.55 0 8.39 3.22a10.07 10.07 0 0 1-.55 13.38q-2.83 2.73-7.83 2.73a11 11 0 0 1-7.21-2.26 9.09 9.09 0 0 1-3.38-7.35zm24.93-9.28h7.09v18.5h-7.09v-18.5zm0-7h7.09v4.82h-7.09v-4.82zM270 153.85l6.74.77a9.45 9.45 0 0 1-1.83 3.65 8.51 8.51 0 0 1-3.25 2.39 12.75 12.75 0 0 1-5 .85 18.5 18.5 0 0 1-4.9-.55 8.57 8.57 0 0 1-3.37-1.77 8.93 8.93 0 0 1-2.21-2.88 10.12 10.12 0 0 1-.8-4.38 10.32 10.32 0 0 1 1-4.75 8.57 8.57 0 0 1 2-2.5 9 9 0 0 1 2.54-1.64 14.11 14.11 0 0 1 5.31-.85q4.53 0 6.91 1.62a8.54 8.54 0 0 1 3.34 4.74l-6.67.89a3.1 3.1 0 0 0-1.14-1.79 3.71 3.71 0 0 0-2.22-.6 3.58 3.58 0 0 0-2.85 1.26 5.72 5.72 0 0 0-1.09 3.82 5 5 0 0 0 1.08 3.46 3.56 3.56 0 0 0 2.75 1.18 3.79 3.79 0 0 0 2.34-.71 4.26 4.26 0 0 0 1.42-2.19zm23.31-3.64a4.74 4.74 0 0 0-1.11-2.94 3.47 3.47 0 0 0-5.06.45 4.9 4.9 0 0 0-.82 2.49zm7.21 3.4h-14.21a4.59 4.59 0 0 0 .92 2.54 3.36 3.36 0 0 0 2.68 1.2 4 4 0 0 0 2-.52 4.67 4.67 0 0 0 1.24-1.17l7 .64a10 10 0 0 1-3.87 4 14 14 0 0 1-6.5 1.21 13.28 13.28 0 0 1-5.78-1 8.47 8.47 0 0 1-3.49-3.29 9.94 9.94 0 0 1-1.39-5.3 9.31 9.31 0 0 1 2.78-7 10.59 10.59 0 0 1 7.67-2.68 13.66 13.66 0 0 1 6.27 1.2 8.12 8.12 0 0 1 3.5 3.48 12.73 12.73 0 0 1 1.2 5.94v.8z" fill="#fff"/><path d="M154.58 69.88S131.2 79 135 90.5c5.5 16.88 53 19.36 107.72-25.39a19.86 19.86 0 0 1 .91 3.31c2.3-1.85-79.75 70.45-121.12 38-15.63-14.88 12.37-39 32.12-36.5z" fill="#e42313"/></svg>