<svg xmlns="http://www.w3.org/2000/svg" viewBox="0 0 283.47 287.84" xmlns:v="https://vecta.io/nano"><g fill="#009640"><path d="M161 34.74A206.3 206.3 0 0 0 141.73 0a204.61 204.61 0 0 0-19.27 34.74A132 132 0 0 1 141.73 61 131.26 131.26 0 0 1 161 34.74zm-38.53 218.37a204.88 204.88 0 0 0 19.27 34.73A206.24 206.24 0 0 0 161 253.11a132 132 0 0 1-19.27-26.27 132.82 132.82 0 0 1-19.26 26.27z"/><path d="M122.47 34.74a203.54 203.54 0 0 0-30-26.06 203.86 203.86 0 0 0-6.21 39.23 133.17 133.17 0 0 1 27.07 18.08 132.76 132.76 0 0 1 9.14-31.25zM161 253.11a203.63 203.63 0 0 0 30 26 204.64 204.64 0 0 0 6.2-39.22 133.69 133.69 0 0 1-27.07-18.1 133.24 133.24 0 0 1-9.13 31.32z"/><path d="M86.31 47.91a206.14 206.14 0 0 0-37.07-14.25 202.53 202.53 0 0 0 7.58 39 131.83 131.83 0 0 1 31.62 7.73 131.26 131.26 0 0 1-2.13-32.48zm110.86 192.04a204.48 204.48 0 0 0 37.08 14.22 203.41 203.41 0 0 0-7.59-39 131.94 131.94 0 0 1-31.66-7.76 131.71 131.71 0 0 1 2.17 32.54z"/><path d="M69.93 102.48a133.27 133.27 0 0 1-13.11-29.82 203.32 203.32 0 0 0-39.72-.7 205.81 205.81 0 0 0 20.44 34 132.42 132.42 0 0 1 32.39-3.48zm143.6 82.91a130.63 130.63 0 0 1 13.12 29.8 206.36 206.36 0 0 0 39.72.71 203.33 203.33 0 0 0-20.46-34.07 132.15 132.15 0 0 1-32.38 3.56z"/><path d="M37.54 106A203.53 203.53 0 0 0 0 118.93a206.24 206.24 0 0 0 30.87 25 132 132 0 0 1 29.2-14.4A133.41 133.41 0 0 1 37.54 106zm215.05 37.92a131.5 131.5 0 0 1-29.19 14.4 132.27 132.27 0 0 1 22.52 23.51 202.39 202.39 0 0 0 37.55-12.92 203.14 203.14 0 0 0-30.88-24.99z"/><path d="M60.08 158.32a131.28 131.28 0 0 1-29.2-14.4 204.76 204.76 0 0 0-30.88 25 203.65 203.65 0 0 0 37.54 12.92 133 133 0 0 1 22.54-23.52zm163.32-28.84a132.26 132.26 0 0 1 29.19 14.4 204.59 204.59 0 0 0 30.88-25 202.28 202.28 0 0 0-37.55-12.93 132.79 132.79 0 0 1-22.52 23.53z"/><path d="M37.54 181.83A204.49 204.49 0 0 0 17.1 215.9a206.29 206.29 0 0 0 39.72-.72 133.17 133.17 0 0 1 13.11-29.8 132.36 132.36 0 0 1-32.39-3.55zM245.92 106a203.64 203.64 0 0 0 20.46-34.06 205.81 205.81 0 0 0-39.72.72 130.73 130.73 0 0 1-13.13 29.82 132.22 132.22 0 0 1 32.39 3.52z"/><path d="M88.44 207.43a132.29 132.29 0 0 1-31.62 7.75 202.55 202.55 0 0 0-7.58 39 205.07 205.07 0 0 0 37.07-14.22 131.6 131.6 0 0 1 2.13-32.53zM195 80.39a131.57 131.57 0 0 1 31.62-7.73 203.39 203.39 0 0 0 7.59-39 203.89 203.89 0 0 0-37.08 14.23 131.53 131.53 0 0 1-2.13 32.5z"/><path d="M86.31 239.95a204.21 204.21 0 0 0 6.21 39.22 204.52 204.52 0 0 0 30-26 133.06 133.06 0 0 1-9.1-31.27 133.48 133.48 0 0 1-27.11 18.05zM197.17 47.89A204.29 204.29 0 0 0 191 8.68a202.66 202.66 0 0 0-30 26.06 132.68 132.68 0 0 1 9.09 31.25 133.72 133.72 0 0 1 27.08-18.1z"/></g><g fill="#86bc25"><path d="M131.82 87.97a91 91 0 0 1 9.87-27 132 132 0 0 0-19.27-26.26 132.76 132.76 0 0 0-9.1 31.25 91 91 0 0 1 18.5 22.01zm19.79 111.9a91.37 91.37 0 0 1-9.87 27A132 132 0 0 0 161 253.11a133.24 133.24 0 0 0 9.09-31.27 91.32 91.32 0 0 1-18.48-21.97zM88.44 80.39a91.23 91.23 0 0 1 24.89 14.32 91.34 91.34 0 0 1 0-28.73A133.17 133.17 0 0 0 86.26 47.9a131.26 131.26 0 0 0 2.18 32.49zM195 207.43a91.32 91.32 0 0 1-24.85-14.32 91.19 91.19 0 0 1 0 28.71 133.69 133.69 0 0 0 27.07 18.1 131.71 131.71 0 0 0-2.22-32.49z"/><path d="M98.23 107.4a90.86 90.86 0 0 1-9.79-27 131.83 131.83 0 0 0-31.62-7.74 133.27 133.27 0 0 0 13.11 29.82 91.35 91.35 0 0 1 28.3 4.92zm87.02 73.08a91.08 91.08 0 0 1 9.78 27 131.94 131.94 0 0 0 31.62 7.76 130.63 130.63 0 0 0-13.12-29.8 91.2 91.2 0 0 1-28.28-4.96z"/><path d="M60.08 129.48a90.88 90.88 0 0 1 28.28-5 90.74 90.74 0 0 1-18.43-22 132.42 132.42 0 0 0-32.38 3.54 133.41 133.41 0 0 0 22.53 23.46zm163.32 28.84a91.51 91.51 0 0 1-28.28 5 90.49 90.49 0 0 1 18.41 22 132.15 132.15 0 0 0 32.38-3.56 132.27 132.27 0 0 0-22.51-23.44z"/><path d="M84.92 143.92a91.35 91.35 0 0 1-24.84-14.44 132 132 0 0 0-29.2 14.4 131.28 131.28 0 0 0 29.2 14.4 91 91 0 0 1 24.84-14.36zm113.62 0a90.87 90.87 0 0 1 24.86 14.4 131.5 131.5 0 0 0 29.19-14.4 132.26 132.26 0 0 0-29.19-14.44 91.27 91.27 0 0 1-24.86 14.44z"/><path d="M69.93 185.39a90.61 90.61 0 0 1 18.43-22 91 91 0 0 1-28.28-5 133 133 0 0 0-22.54 23.51 132.36 132.36 0 0 0 32.39 3.49zm143.6-82.91a90.62 90.62 0 0 1-18.41 22 91 91 0 0 1 28.28 5 132.79 132.79 0 0 0 22.52-23.52 132.22 132.22 0 0 0-32.39-3.48z"/><path d="M98.23 180.48a91.31 91.31 0 0 1-28.3 5 133.17 133.17 0 0 0-13.11 29.75 132.29 132.29 0 0 0 31.62-7.76 90.76 90.76 0 0 1 9.79-26.99zm87.02-73.08a91.24 91.24 0 0 1 28.28-4.92 130.73 130.73 0 0 0 13.12-29.8A131.57 131.57 0 0 0 195 80.41a91.19 91.19 0 0 1-9.75 26.99zm-53.43 92.47a91 91 0 0 1-18.49 22 133.06 133.06 0 0 0 9.1 31.27 132.82 132.82 0 0 0 19.27-26.27 91.12 91.12 0 0 1-9.88-27z"/><path d="M113.33 193.11a91.35 91.35 0 0 1-24.89 14.3 131.6 131.6 0 0 0-2.13 32.52 133.48 133.48 0 0 0 27.07-18.1 91.26 91.26 0 0 1-.05-28.72zm38.28-105.14a91.06 91.06 0 0 1 18.49-22 132.68 132.68 0 0 0-9.1-31.25 131.26 131.26 0 0 0-19.27 26.26 91.29 91.29 0 0 1 9.88 26.99z"/><path d="M170.15 94.71A91.19 91.19 0 0 1 195 80.39a131.53 131.53 0 0 0 2.13-32.5 133.72 133.72 0 0 0-27.07 18.09 91.27 91.27 0 0 1 .09 28.73z"/></g><path d="M131.91 116.94a77.5 77.5 0 0 0-18.58-22.23 77.88 77.88 0 0 0 10 27.2 77.7 77.7 0 0 0-25-14.51 77.09 77.09 0 0 0 18.64 22.16 77.45 77.45 0 0 0-28.56-5.08 77.57 77.57 0 0 0 25.1 14.45 77.65 77.65 0 0 0-28.54 5 77.75 77.75 0 0 0 28.54 5 77.65 77.65 0 0 0-25.1 14.44 77.37 77.37 0 0 0 28.52-5.07 77.06 77.06 0 0 0-18.65 22.18 78 78 0 0 0 25-14.51 77.82 77.82 0 0 0-10 27.21 77.76 77.76 0 0 0 18.58-22.22 78 78 0 0 0 0 29 77.82 77.82 0 0 0 9.87-27.22 78 78 0 0 0 9.87 27.22 77.61 77.61 0 0 0 0-29 78.08 78.08 0 0 0 18.59 22.22 77.66 77.66 0 0 0-10-27.21 78.23 78.23 0 0 0 25.06 14.51 77.29 77.29 0 0 0-18.65-22.16 77.36 77.36 0 0 0 28.52 5.07A78.24 78.24 0 0 0 170 148.93a77.31 77.31 0 0 0 28.52-5 77.53 77.53 0 0 0-28.52-5 77.84 77.84 0 0 0 25.1-14.45 77.58 77.58 0 0 0-28.53 5.07 77.14 77.14 0 0 0 18.66-22.16 78.11 78.11 0 0 0-25.06 14.52 77.76 77.76 0 0 0 10-27.2 77.83 77.83 0 0 0-18.59 22.23 77.69 77.69 0 0 0 0-29 77.83 77.83 0 0 0-9.87 27.23 77.65 77.65 0 0 0-9.91-27.2 78.09 78.09 0 0 0 .11 28.97z" fill="#fff"/><g fill="#ffda00"><path d="M131.91 116.94a78.09 78.09 0 0 1 0-29 91 91 0 0 0-18.49-22 91.34 91.34 0 0 0 0 28.73 77.5 77.5 0 0 1 18.49 22.27zm19.65 53.97a77.61 77.61 0 0 1 0 29 91.32 91.32 0 0 0 18.49 22 91.19 91.19 0 0 0 0-28.71 78.08 78.08 0 0 1-18.49-22.29zm-38.23-76.2a91.23 91.23 0 0 0-24.89-14.32 90.86 90.86 0 0 0 9.79 27 77.7 77.7 0 0 1 25 14.51 77.88 77.88 0 0 1-9.9-27.19zm56.82 98.4A91.32 91.32 0 0 0 195 207.43a91.08 91.08 0 0 0-9.78-27 78.23 78.23 0 0 1-25.06-14.51 77.66 77.66 0 0 1 9.99 27.19z"/><path d="M116.87 129.56a77.09 77.09 0 0 1-18.64-22.16 91.35 91.35 0 0 0-28.3-4.94 90.74 90.74 0 0 0 18.43 22 77.45 77.45 0 0 1 28.51 5.1zm49.74 28.72a77.29 77.29 0 0 1 18.64 22.2 91.2 91.2 0 0 0 28.28 5 90.49 90.49 0 0 0-18.41-22 77.36 77.36 0 0 1-28.51-5.2z"/><path d="M113.46 138.94a77.57 77.57 0 0 1-25.1-14.46 90.88 90.88 0 0 0-28.28 5 91.35 91.35 0 0 0 24.84 14.4 77.65 77.65 0 0 1 28.54-4.94zm56.54 9.95a78.24 78.24 0 0 1 25.1 14.46 91.51 91.51 0 0 0 28.28-5 90.87 90.87 0 0 0-24.86-14.4 77.31 77.31 0 0 1-28.52 4.94z"/><path d="M84.92 143.92a91 91 0 0 0-24.84 14.4 91 91 0 0 0 28.28 5 77.65 77.65 0 0 1 25.1-14.44 77.75 77.75 0 0 1-28.54-4.96zm113.62 0a91.27 91.27 0 0 0 24.86-14.44 91 91 0 0 0-28.28-5A77.84 77.84 0 0 1 170 138.93a77.53 77.53 0 0 1 28.54 4.99z"/><path d="M116.87 158.28a77.37 77.37 0 0 1-28.52 5.07 90.61 90.61 0 0 0-18.43 22 91.31 91.31 0 0 0 28.3-5 77.06 77.06 0 0 1 18.65-22.07zm49.72-28.72a77.58 77.58 0 0 1 28.53-5.08 90.62 90.62 0 0 0 18.41-22 91.24 91.24 0 0 0-28.28 4.94 77.14 77.14 0 0 1-18.66 22.14zm-34.77 70.31a91.12 91.12 0 0 0 9.87 27 91.37 91.37 0 0 0 9.87-27 78 78 0 0 1-9.87-27.22 77.82 77.82 0 0 1-9.87 27.22zm.09-28.96a77.76 77.76 0 0 1-18.58 22.2 91.26 91.26 0 0 0 0 28.71 91 91 0 0 0 18.49-22 78 78 0 0 1 .09-28.91z"/><path d="M98.23 180.48a90.76 90.76 0 0 0-9.79 27 91.35 91.35 0 0 0 24.89-14.3 77.82 77.82 0 0 1 10-27.21 78 78 0 0 1-25.1 14.51zm53.38-92.51a91.29 91.29 0 0 0-9.87-27 91 91 0 0 0-9.87 27 77.65 77.65 0 0 1 9.87 27.23 77.83 77.83 0 0 1 9.87-27.23zm-.05 28.97a77.83 77.83 0 0 1 18.59-22.23 91.27 91.27 0 0 0 0-28.73 91.06 91.06 0 0 0-18.49 22 77.69 77.69 0 0 1-.1 28.96z"/><path d="M185.25 107.4a91.19 91.19 0 0 0 9.78-27 91.19 91.19 0 0 0-24.88 14.32 77.76 77.76 0 0 1-10 27.2 78.11 78.11 0 0 1 25.1-14.52z"/></g></svg>