<svg xmlns="http://www.w3.org/2000/svg" viewBox="0 0 648.16 362.07" xmlns:v="https://vecta.io/nano"><defs><clipPath id="A" transform="translate(-359.35 -203)"><path d="M683.42,220.47c16.3,0,32.67.4,48.91,1.33q11.68.67,23.34,1.7,10.6.93,21.16,2.17,11.77,1.33,23.48,3.16,10.66,1.62,21.26,3.6t21.26,4.39q9.66,2.18,19.17,4.73,6.08,1.62,12.1,3.41,5.48,1.62,10.92,3.39t11,3.72q4.92,1.77,9.79,3.68,5.42,2.13,10.74,4.46,4.86,2.12,9.62,4.43t9.49,4.86q4.28,2.31,8.43,4.83c3.21,1.94,6.43,4,9.46,6.15,2.81,2,5.58,4,8.21,6.2s5.28,4.5,7.71,6.9a89.55,89.55,0,0,1,6.37,7A66.39,66.39,0,0,1,984,313a51.22,51.22,0,0,1,3.35,8.53,41.9,41.9,0,0,1,1,4.23,43.78,43.78,0,0,1,.17,15.5,46.39,46.39,0,0,1-1.57,6.44,51.49,51.49,0,0,1-2.44,6.19,58.69,58.69,0,0,1-2.83,5.3q-1.74,2.88-3.76,5.6-1.82,2.43-3.82,4.73T969.87,374a113,113,0,0,1-9.22,8.26q-2.42,2-4.94,3.8t-5.07,3.57c-4.74,3.2-9.71,6.19-14.74,9q-4.59,2.52-9.3,4.84-5.91,2.91-12,5.53-5.42,2.36-10.94,4.51t-11,4.1c-10.2,3.61-20.66,6.83-31.13,9.66q-9.53,2.58-19.16,4.8-11.52,2.65-23.16,4.84-10.44,2-20.94,3.58t-20.91,2.9c-19.36,2.38-38.91,4-58.41,4.89q-17.78.81-35.58.86c-16.33,0-32.6-.39-48.91-1.33q-11.68-.67-23.34-1.7-10.6-.93-21.16-2.17-11.77-1.38-23.47-3.16-10.62-1.73-21.18-3.66t-21.26-4.39q-9.66-2.18-19.21-4.73-6.08-1.62-12.1-3.41-5.48-1.62-10.92-3.39T471,417.43q-4.92-1.77-9.79-3.68-5.42-2.13-10.74-4.46-4.86-2.12-9.62-4.43T431.31,400q-4.28-2.31-8.43-4.83c-3.21-1.94-6.43-4-9.46-6.15-2.81-2-5.58-4-8.21-6.2s-5.28-4.5-7.71-6.9a89.57,89.57,0,0,1-6.39-6.92A66.39,66.39,0,0,1,383,356.53a51.22,51.22,0,0,1-3.4-8.53,41.9,41.9,0,0,1-1-4.23,43.77,43.77,0,0,1-.17-15.5,46.39,46.39,0,0,1,1.57-6.44,51.5,51.5,0,0,1,2.44-6.19,58.69,58.69,0,0,1,2.83-5.3q1.74-2.88,3.76-5.6,1.81-2.43,3.82-4.73t4.1-4.43a113,113,0,0,1,9.22-8.26q2.42-2,4.94-3.8t5.07-3.57c4.74-3.2,9.71-6.19,14.74-9q4.59-2.52,9.3-4.84,5.91-2.91,12-5.53,5.42-2.36,10.94-4.51t11-4.1c10.2-3.61,20.66-6.83,31.13-9.66q9.53-2.58,19.16-4.8,11.52-2.65,23.16-4.84,10.44-2,20.94-3.58t20.91-2.9c19.36-2.38,38.91-4,58.41-4.89q17.78-.81,35.58-.86Z" fill="none"/></clipPath></defs><path d="M324.07 0q-18.22 0-36.48.88-14.26.65-28.49 1.81Q243.4 4 227.73 5.9q-10.77 1.33-21.49 3-10.72 1.67-21.59 3.69-12 2.26-23.93 5-10 2.3-19.88 5-7.8 2.11-15.51 4.48-8.57 2.63-17 5.61-5.84 2.06-11.6 4.32-5.76 2.26-11.59 4.78-6.49 2.81-12.77 5.92-5.08 2.5-10 5.22-3.93 2.16-7.77 4.47c-4.84 2.92-9.57 6-14.1 9.36q-2.85 2.09-5.59 4.25-2.74 2.16-5.18 4.38a116.89 116.89 0 0 0-10.46 10.51q-2.45 2.81-4.67 5.78-2.54 3.4-4.72 7a75.69 75.69 0 0 0-3.66 6.86 68.41 68.41 0 0 0-3.24 8.22 63 63 0 0 0-2.13 8.76 60.25 60.25 0 0 0 .23 21.36 64.16 64.16 0 0 0 3.25 11.27c.77 2 1.63 3.93 2.58 5.82a78.27 78.27 0 0 0 4.51 7.85 93.36 93.36 0 0 0 9.32 12 128.78 128.78 0 0 0 17.41 15.7c3.21 2.43 6.47 4.71 9.86 6.92q2.74 1.79 5.55 3.49 4.53 2.74 9.2 5.27 5 2.74 10.24 5.25 5.24 2.51 10.29 4.74 5.65 2.47 11.4 4.73c10.84 4.26 21.94 8 33.14 11.33q6.27 1.86 12.6 3.55 9.91 2.64 19.93 4.91 10.94 2.47 22 4.54 11.06 2.07 21.91 3.76 22.81 3.47 45.86 5.48 11.83 1 23.83 1.7c16.7 1 33.37 1.41 50.08 1.36q18.22 0 36.43-.88 14.26-.65 28.49-1.81 15.75-1.28 31.42-3.21 10.77-1.33 21.49-3 10.72-1.67 21.57-3.64 12-2.26 23.93-5 10-2.3 19.88-5 7.8-2.11 15.51-4.48 8.57-2.63 17-5.61 5.84-2.06 11.6-4.32 5.76-2.26 11.6-4.73 6.47-2.81 12.79-5.92 5.08-2.5 10-5.22 3.93-2.16 7.77-4.47c4.84-2.92 9.57-6 14.1-9.36q2.85-2.09 5.59-4.3 2.74-2.21 5.18-4.38a116.87 116.87 0 0 0 10.46-10.51q2.45-2.81 4.67-5.78 2.54-3.4 4.72-7a75.73 75.73 0 0 0 3.66-6.86 68.41 68.41 0 0 0 3.24-8.22 63 63 0 0 0 2.13-8.76 60.25 60.25 0 0 0-.23-21.36 64.16 64.16 0 0 0-3.25-11.27c-.77-2-1.63-3.93-2.58-5.82a78.25 78.25 0 0 0-4.56-7.85 93.35 93.35 0 0 0-9.32-12A128.78 128.78 0 0 0 610.03 67c-3.21-2.43-6.47-4.71-9.86-6.92q-2.74-1.79-5.55-3.49-4.53-2.74-9.2-5.27-5-2.74-10.24-5.25-5.24-2.51-10.29-4.74-5.65-2.47-11.4-4.73c-10.84-4.26-21.94-8-33.14-11.33q-6.27-1.86-12.6-3.55-9.91-2.64-19.93-4.91-10.94-2.47-22-4.54-11.06-2.07-21.86-3.69-12-1.83-24.13-3.25-10.84-1.27-21.72-2.23Q374.28 1 350.4.34 337.26 0 324.1 0z"/><path d="M324.07 8.7c16.5 0 33.06.4 49.5 1.35q11.83.68 23.63 1.72 10.74.94 21.44 2.2 11.93 1.4 23.81 3.2 10.83 1.65 21.58 3.66 10.75 2.01 21.62 4.46 9.84 2.22 19.57 4.82 6.2 1.66 12.35 3.48c10.94 3.24 21.78 6.91 32.36 11.07q5.58 2.19 11.07 4.59 5 2.2 10 4.58 5 2.38 9.86 5.06 4.47 2.42 8.82 5 2.67 1.62 5.28 3.32a164.49 164.49 0 0 1 9.34 6.55 119.92 119.92 0 0 1 16.2 14.6 84.67 84.67 0 0 1 8.46 10.89 69.76 69.76 0 0 1 4 7q1.25 2.51 2.27 5.12.93 2.38 1.64 4.82.71 2.44 1.2 5a52 52 0 0 1 .2 18.44 54.67 54.67 0 0 1-1.85 7.6 60 60 0 0 1-2.84 7.21 67.21 67.21 0 0 1-3.25 6.08q-2 3.25-4.24 6.32-2 2.7-4.25 5.26-2.25 2.56-4.49 4.9-2.48 2.49-5.12 4.83-2.37 2.1-4.84 4.09-2.47 1.99-5.27 4-2.65 1.94-5.38 3.78-3.94 2.65-8 5.12-3.73 2.21-7.49 4.31-4.77 2.62-9.67 5-6.11 3-12.37 5.73-5.58 2.43-11.27 4.65-5.69 2.22-11.29 4.18-8.25 2.92-16.63 5.49-7.56 2.32-15.2 4.39-9.71 2.63-19.52 4.89-11.71 2.7-23.54 4.92-10.6 2-21.26 3.64-10.66 1.64-21.19 3-15.47 1.9-31 3.17-14 1.14-28.14 1.79-18 .82-36 .87-13 0-26-.34c-22.9-.65-45.84-2.26-68.58-4.93q-11.93-1.4-23.81-3.2-10.83-1.65-21.58-3.66-10.75-2.01-21.62-4.46-9.93-2.26-19.62-4.82-6.2-1.66-12.35-3.48c-10.94-3.24-21.78-6.91-32.36-11.07q-5.58-2.19-11.07-4.59-5-2.2-10-4.58-5-2.38-9.86-5.06-4.47-2.42-8.82-5-2.67-1.62-5.28-3.32a164.49 164.49 0 0 1-9.34-6.55 119.92 119.92 0 0 1-16.2-14.6 84.69 84.69 0 0 1-8.46-10.84 69.77 69.77 0 0 1-4-7q-1.25-2.51-2.27-5.12-.93-2.38-1.64-4.82-.71-2.44-1.2-5a52 52 0 0 1-.2-18.44 54.69 54.69 0 0 1 1.85-7.6 60 60 0 0 1 2.84-7.21 67.22 67.22 0 0 1 3.25-6.08q2-3.25 4.24-6.32 2-2.7 4.25-5.26 2.25-2.56 4.54-4.87 2.48-2.49 5.12-4.83 2.37-2.1 4.84-4.09 2.47-1.99 5.27-4 2.65-1.94 5.38-3.78 3.94-2.65 8-5.12 3.67-2.21 7.44-4.28 4.77-2.62 9.67-5 6.11-3 12.37-5.73 5.59-2.43 11.27-4.65 5.68-2.22 11.31-4.21 8.25-2.92 16.63-5.49 7.56-2.32 15.2-4.39 9.71-2.63 19.52-4.89 11.71-2.7 23.54-4.92 10.6-2 21.26-3.64 10.66-1.64 21.2-2.94 15.47-1.9 31-3.16 14-1.14 28.14-1.79 18-.82 36-.87z" fill="#fff"/><path d="M324.07 17.47c16.3 0 32.67.4 48.91 1.33q11.68.67 23.34 1.7 10.6.93 21.16 2.17 11.77 1.33 23.48 3.16 10.66 1.62 21.26 3.6 10.6 1.98 21.26 4.39 9.66 2.18 19.17 4.73 6.08 1.62 12.1 3.41 5.48 1.62 10.92 3.39 5.44 1.77 11 3.72 4.92 1.77 9.79 3.68 5.42 2.13 10.74 4.46 4.86 2.12 9.62 4.43 4.76 2.31 9.49 4.86 4.28 2.31 8.43 4.83c3.21 1.94 6.43 4 9.46 6.15 2.81 2 5.58 4 8.21 6.2s5.28 4.5 7.71 6.9a89.55 89.55 0 0 1 6.37 7 66.39 66.39 0 0 1 8.16 12.42 51.22 51.22 0 0 1 3.35 8.53 41.9 41.9 0 0 1 1 4.23 43.78 43.78 0 0 1 .17 15.5 46.39 46.39 0 0 1-1.57 6.44 51.49 51.49 0 0 1-2.44 6.19 58.69 58.69 0 0 1-2.83 5.3q-1.74 2.88-3.76 5.6-1.82 2.43-3.82 4.73-2 2.3-4.23 4.48a113 113 0 0 1-9.22 8.26q-2.42 2-4.94 3.8-2.52 1.8-5.07 3.57c-4.74 3.2-9.71 6.19-14.74 9q-4.59 2.52-9.3 4.84-5.91 2.91-12 5.53-5.42 2.36-10.94 4.51-5.52 2.15-11 4.1c-10.2 3.61-20.66 6.83-31.13 9.66q-9.53 2.58-19.16 4.8-11.52 2.65-23.16 4.84-10.44 2-20.94 3.58-10.5 1.58-20.91 2.9c-19.36 2.38-38.91 4-58.41 4.89q-17.78.81-35.58.86c-16.33 0-32.6-.39-48.91-1.33q-11.68-.67-23.34-1.7-10.6-.93-21.16-2.17-11.77-1.38-23.47-3.16-10.62-1.73-21.18-3.66-10.56-1.93-21.26-4.39-9.66-2.18-19.21-4.73-6.08-1.62-12.1-3.41-5.48-1.62-10.92-3.39-5.44-1.77-10.82-3.77-4.92-1.77-9.79-3.68-5.42-2.13-10.74-4.46-4.86-2.12-9.62-4.43-4.76-2.31-9.54-4.86-4.28-2.31-8.43-4.83c-3.21-1.94-6.43-4-9.46-6.15-2.81-2-5.58-4-8.21-6.2s-5.28-4.5-7.71-6.9a89.57 89.57 0 0 1-6.39-6.92 66.39 66.39 0 0 1-8.11-12.47 51.22 51.22 0 0 1-3.4-8.53 41.9 41.9 0 0 1-1-4.23 43.77 43.77 0 0 1-.17-15.5 46.39 46.39 0 0 1 1.57-6.44 51.5 51.5 0 0 1 2.44-6.19 58.69 58.69 0 0 1 2.83-5.3q1.74-2.88 3.76-5.6 1.81-2.43 3.82-4.73 2.01-2.3 4.1-4.43a113 113 0 0 1 9.22-8.26q2.42-2 4.94-3.8 2.52-1.8 5.07-3.57c4.74-3.2 9.71-6.19 14.74-9q4.59-2.52 9.3-4.84 5.91-2.91 12-5.53 5.42-2.36 10.94-4.51 5.52-2.15 11-4.1c10.2-3.61 20.66-6.83 31.13-9.66q9.53-2.58 19.16-4.8 11.52-2.65 23.16-4.84 10.44-2 20.94-3.58 10.5-1.58 20.91-2.9c19.36-2.38 38.91-4 58.41-4.89q17.78-.81 35.58-.86z"/><g clip-path="url(#A)"><path d="M639.08 176.73l3.77-8.45c.92-5.37 2.14-10.7 2.7-16.12l-80.12-26.46-149.68-45-181.43-11.76-46.67 70.57-5.61 56.78 45.78 48.48L192.9 281l253 3.72 129.8-17.15 63.37-86.47a5.05 5.05 0 0 1 .01-4.37z" fill="#837351"/><g fill="#fff"><path d="M320.47 99.82a225.5 225.5 0 0 0 33.77 19.51c11.32 4.76 18.25 4.73 22.8 2.78 4.16-6.39 9.52-11.17 17.8-15.88l-60.88-7.7c-13.48-2.25-16-1.26-13.49 1.29zm-51.71-12.75c56.18-23.64 179.55-1.46 376.8 67.79.41-1.77.95-3.53 1.39-5.32-82.66-33.17-162.66-61.37-254.3-89.89C305.42 35.15 249.28 40 229.42 74.49l39.3 12.57zm228.08 165.21c-15.92-13.51-32-24-52.84-34.61-5.87-3-12-5.81-18.5-8.62-8.61-3.76-17.63-7.31-27.13-10.68q-3.58-1.45-7.24-2.87l1.24.67q7.93 3.62 15.46 7.36a238.31 238.31 0 0 1 44.75 23.92c21.61 15.47 38.48 35.4 26.06 49.25-49.22 48.61-197.24 32.23-424.36-39.37-2 5-4.45 17.6-4.63 17.52l-6.67 17.87-.67 3.28c.21.08-2.46 5.45-2.23 5.54 190.77 62.62 450.1 71.21 460.68 2.37 5.6-4.33 5.24-9.27 4.6-15.74-.15-5.56-3.04-10.89-8.52-15.89zM74.65 107.86c25 46.22 69.1 84.14 133.47 114.88q-.23-.59-.49-1.21c-17-27.25-36.15-59.4-6.47-71.72 33-12.14 106.58-2 145.24 16.54l.77.25.87.17h-.05q-20.34-41.83-78.34-69.58-10.34-3.74-20.42-7c-14.42-4.9-28.51-9-42.46-12.38C170.36 68.58 138.49 65 103.5 66.2l-4.15.07c-23.8 5.1-34.93 21.75-25.11 40.28q.18.65.41 1.31z"/></g></g><path d="M52.9 321q.22-1.46.43-2.92a22.49 22.49 0 0 0 .22-2.92 27.09 27.09 0 0 0-3.59-13.36 27.41 27.41 0 0 0-9.31-9.8 25.36 25.36 0 0 0-13.34-3.8 26.94 26.94 0 0 0-14 3.8 27.26 27.26 0 0 0-9.7 10 28.22 28.22 0 0 0-3.65 13.92 26.79 26.79 0 0 0 3.7 13.63 27.07 27.07 0 0 0 23.37 13.35 27.6 27.6 0 0 0 15.22-4.81 24 24 0 0 0 9.44-11.69H38.07a12.86 12.86 0 0 1-4.92 3.24 18.31 18.31 0 0 1-6.59 1.22 14.32 14.32 0 0 1-8.41-2.69 13.89 13.89 0 0 1-5.14-7.15zm-40.06-10.93a13.57 13.57 0 0 1 5.54-7.15 16 16 0 0 1 8.74-2.69 15.13 15.13 0 0 1 8.6 2.62 14.11 14.11 0 0 1 5.4 7.22zm95.67-20.2h-11.3v7.22a20.64 20.64 0 0 0-17.25-8.89 24.58 24.58 0 0 0-10.42 2.19 27.73 27.73 0 0 0-13.74 15.27 30 30 0 0 0-1.52 9.89 31.52 31.52 0 0 0 1.67 10.2 27.08 27.08 0 0 0 4.72 8.53 23.93 23.93 0 0 0 8.13 6.29 25.14 25.14 0 0 0 10.85 2.33 22.8 22.8 0 0 0 9.76-2.33 20 20 0 0 0 7.68-6.29h.19v7h11.3v-51.41zm-11.67 25.59a15.75 15.75 0 0 1-4.17 11 14.5 14.5 0 0 1-10.85 4.36 15.15 15.15 0 0 1-10.74-4.22 14.66 14.66 0 0 1-4.43-10.6 16.11 16.11 0 0 1 4.29-11.29 14.87 14.87 0 0 1 11.07-4.46 14.31 14.31 0 0 1 10.64 4.34 15.55 15.55 0 0 1 4.15 10.88zm56.12-25.59v7h-.19a15.17 15.17 0 0 0-6.67-6.58 20.56 20.56 0 0 0-9.38-2.13 25.87 25.87 0 0 0-10.76 2.42 27 27 0 0 0-8.66 6.33 27.54 27.54 0 0 0-5 8.22 26.59 26.59 0 0 0-1.83 9.68 30.87 30.87 0 0 0 1.93 10.78 25.7 25.7 0 0 0 14.17 15 25 25 0 0 0 10 2.29 18.55 18.55 0 0 0 9.32-2.42 24.18 24.18 0 0 0 7.1-6.38l.19.19a35.06 35.06 0 0 1-1.35 6.16 13 13 0 0 1-3.57 5.33 15.47 15.47 0 0 1-5.33 3.18 18.38 18.38 0 0 1-6.17 1.09 16.29 16.29 0 0 1-6.2-1.35 15.7 15.7 0 0 1-5.3-3.58h-14a25.16 25.16 0 0 0 10.1 12.38 28.56 28.56 0 0 0 15.39 4.59 27.82 27.82 0 0 0 11.11-2.35 29.18 29.18 0 0 0 9.29-6.45 24.66 24.66 0 0 0 5.7-9.13 32.57 32.57 0 0 0 1.53-10.72v-43.55zm-.31 25.87a15.57 15.57 0 0 1-4.17 10.52 14 14 0 0 1-10.3 4.6 15.39 15.39 0 0 1-11.09-4.45 15.6 15.6 0 0 1-4.44-11.13 15.76 15.76 0 0 1 1-5.66 14 14 0 0 1 3.12-4.82 15.14 15.14 0 0 1 4.75-3.32 14.2 14.2 0 0 1 5.73-1.23 15.31 15.31 0 0 1 11 4.44 15.49 15.49 0 0 1 4.43 11zm15.78 25.49h12.33v-68.51h-12.33v68.51h0zM235.75 321q.22-1.46.43-2.92a22.5 22.5 0 0 0 .22-2.92 27.09 27.09 0 0 0-3.57-13.38 27.41 27.41 0 0 0-9.42-9.79 25.36 25.36 0 0 0-13.34-3.8 26.94 26.94 0 0 0-13.92 3.81 27.26 27.26 0 0 0-9.7 10 28.22 28.22 0 0 0-3.64 14 26.79 26.79 0 0 0 3.7 13.63A27.07 27.07 0 0 0 209.88 343a27.6 27.6 0 0 0 15.22-4.81 24 24 0 0 0 9.44-11.69h-13.58a12.86 12.86 0 0 1-4.92 3.24 18.31 18.31 0 0 1-6.59 1.26 14.32 14.32 0 0 1-8.41-2.69 13.89 13.89 0 0 1-5.14-7.15zm-40.1-10.93a13.57 13.57 0 0 1 5.54-7.15 16 16 0 0 1 8.74-2.69 15.13 15.13 0 0 1 8.6 2.62 14.11 14.11 0 0 1 5.4 7.22z" fill="#8d724f"/><path d="M238.38 358.39h12.27v-22.71h.19a18.18 18.18 0 0 0 6.81 5.52 20.62 20.62 0 0 0 8.69 1.7 24.64 24.64 0 0 0 13.31-3.9 26.38 26.38 0 0 0 9.07-9.93 29 29 0 0 0 3.34-13.56 30 30 0 0 0-1.79-10.38 24.66 24.66 0 0 0-24-17 21.07 21.07 0 0 0-9.44 2 18.2 18.2 0 0 0-7.07 6.29h-.11v-6.67h-11.3v68.51zm26.7-58.14a14.4 14.4 0 0 1 10.57 4.55c5.695 6.088 5.655 15.56-.09 21.6a15 15 0 0 1-10.91 4.46 14.26 14.26 0 0 1-5.23-1.08 15.84 15.84 0 0 1-4.6-2.82 13.85 13.85 0 0 1-3.66-5.15 16.44 16.44 0 0 1-1.16-6.26 15.4 15.4 0 0 1 4.32-10.85 14.94 14.94 0 0 1 10.8-4.45zM345.26 321q.22-1.46.43-2.92a22.5 22.5 0 0 0 .22-2.92 27.09 27.09 0 0 0-3.57-13.38 27.41 27.41 0 0 0-9.38-9.78 25.36 25.36 0 0 0-13.31-3.8 26.94 26.94 0 0 0-14 3.8 27.26 27.26 0 0 0-9.7 10 28.22 28.22 0 0 0-3.64 14 26.79 26.79 0 0 0 3.7 13.63A27.07 27.07 0 0 0 319.37 343a27.6 27.6 0 0 0 15.28-4.88 24 24 0 0 0 9.44-11.69h-13.6a12.86 12.86 0 0 1-4.92 3.24 18.31 18.31 0 0 1-6.59 1.22 14.32 14.32 0 0 1-8.41-2.69 13.89 13.89 0 0 1-5.14-7.15zm-40.06-10.93a13.57 13.57 0 0 1 5.54-7.15 16 16 0 0 1 8.74-2.69 15.13 15.13 0 0 1 8.6 2.62 14.11 14.11 0 0 1 5.4 7.22zm45.53 31.16h12.32V300.8h7.42v-10.93h-7.42v-17.15h-12.32v17.15h-6.03v10.93h6.03v40.43h0zm20.92 0h12.3v-27.72a23.38 23.38 0 0 1 .41-6 8.84 8.84 0 0 1 3.12-5 11.43 11.43 0 0 1 3.58-1.8 13.52 13.52 0 0 1 3.93-.61v-12h-.93a12.49 12.49 0 0 0-6.42 1.52 13.39 13.39 0 0 0-4.61 4.78h-.19v-4.63h-11.19zm48.48-53.03a28.11 28.11 0 0 0-14 3.69 27.29 27.29 0 0 0-10.06 37.26h0l.11.19a27.76 27.76 0 0 0 9.78 9.8 26.75 26.75 0 0 0 13.69 3.75 27.59 27.59 0 0 0 13.83-3.69 27.11 27.11 0 0 0 13.61-23.57 27.86 27.86 0 0 0-3.61-13.75 27.23 27.23 0 0 0-9.63-9.88 26.34 26.34 0 0 0-13.69-3.8zm-.56 12a14.89 14.89 0 0 1 10.76 4.53 15.55 15.55 0 0 1 4.32 10.86 15.25 15.25 0 0 1-4.29 10.84 15 15 0 0 1-10.71 4.37 14.54 14.54 0 0 1-10.61-4.45 15.45 15.45 0 0 1-4.26-10.7 15.73 15.73 0 0 1 1.06-5.79 14.24 14.24 0 0 1 3.2-4.86 15.31 15.31 0 0 1 4.84-3.41 14.14 14.14 0 0 1 5.74-1.32zm29.39 41.03h12.32v-68.51h-12.32v68.51h0zM516.9 321q.22-1.46.43-2.92a22.5 22.5 0 0 0 .22-2.92 27.09 27.09 0 0 0-3.59-13.36 27.41 27.41 0 0 0-9.31-9.8 25.36 25.36 0 0 0-13.34-3.8 26.94 26.94 0 0 0-14 3.8 27.26 27.26 0 0 0-9.7 10 28.22 28.22 0 0 0-3.65 13.92 26.79 26.79 0 0 0 3.7 13.63 27.07 27.07 0 0 0 23.37 13.35 27.6 27.6 0 0 0 15.22-4.81 24 24 0 0 0 9.44-11.69h-13.62a12.86 12.86 0 0 1-4.92 3.24 18.31 18.31 0 0 1-6.59 1.22 14.32 14.32 0 0 1-8.41-2.69 13.89 13.89 0 0 1-5.14-7.15zm-40.06-10.93a13.57 13.57 0 0 1 5.54-7.15 16 16 0 0 1 8.74-2.69 15.13 15.13 0 0 1 8.6 2.62 14.11 14.11 0 0 1 5.4 7.22zm77.05-20.2v25.23a33.24 33.24 0 0 1-.68 7.34 11.76 11.76 0 0 1-3 6q-2.31 2.37-6.93 2.46a10.14 10.14 0 0 1-5.21-1.39 9.38 9.38 0 0 1-3.61-3.89 15.7 15.7 0 0 1-1.35-5.17 47.87 47.87 0 0 1-.23-5.31v-25.27H520.5v29a40.2 40.2 0 0 0 .72 9.06 16.4 16.4 0 0 0 4.19 7.81 20.77 20.77 0 0 0 7.41 5.37 22.33 22.33 0 0 0 8.81 1.76 16.64 16.64 0 0 0 7.69-1.69 12.42 12.42 0 0 0 5.39-5.44h.19v5.46h11.3v-51.33zm17.23 51.36h12.32v-24.48a48.32 48.32 0 0 1 .41-7.49 12.16 12.16 0 0 1 2.64-6.34q2.14-2.57 7-2.67a10.18 10.18 0 0 1 4.56 1.08 9 9 0 0 1 3.51 3.09 11.27 11.27 0 0 1 1.7 4.59 32 32 0 0 1 .24 4.87v27.35h12.32v-24.48a59.65 59.65 0 0 1 .17-6.17 13.52 13.52 0 0 1 1.77-5.89 9.15 9.15 0 0 1 3.68-3.34 10.8 10.8 0 0 1 4.86-1.11 10.26 10.26 0 0 1 4.37 1 8.12 8.12 0 0 1 3.29 2.76 11.36 11.36 0 0 1 1.59 4.78 37.32 37.32 0 0 1 .27 5v27.35h12.32V312.4a40 40 0 0 0-.87-9.49 18.23 18.23 0 0 0-4.41-8.31 17.85 17.85 0 0 0-7.1-4.93 23.83 23.83 0 0 0-8.57-1.46 22.18 22.18 0 0 0-8.25 1.56 17 17 0 0 0-6.78 4.83 5.62 5.62 0 0 0-1.3 1.57 10.11 10.11 0 0 0-1.2-1.57 16.16 16.16 0 0 0-6.09-4.76 18.46 18.46 0 0 0-7.61-1.64 20.57 20.57 0 0 0-7.65 1.46 10.53 10.53 0 0 0-5.71 4.93h-.19v-4.72h-11.3v51.36z"/></svg>