<svg id="Layer_1" data-name="Layer 1" xmlns="http://www.w3.org/2000/svg" viewBox="0 0 529 122.77"><defs><style>.cls-1{fill:#fff;}.cls-2{fill:#25419b;}.cls-3{fill:#e9722f;}</style></defs><title>logo_gull</title><polyline class="cls-1" points="367.92 0.01 367.92 122.77 503.38 122.77 503.38 0.01"/><path class="cls-2" d="M948,323V445.76H791.15s40.22-25.4,78.32-12.7c0,0-12.7-46.57,46.57-110.06Z" transform="translate(-419 -322.99)"/><path class="cls-3" d="M419,323V445.76H791.16s8.47-29.63,59.27-33.87c0,0-6.35-50.8,65.61-88.9Z" transform="translate(-419 -322.99)"/><path class="cls-1" d="M614.53,396.76a49.07,49.07,0,0,1-.61,7.94,37.37,37.37,0,0,1-1.84,7,33,33,0,0,1-3,6.07,28.88,28.88,0,0,1-4,5.06,28.08,28.08,0,0,1-5,4,31.63,31.63,0,0,1-6,2.9,44.5,44.5,0,0,1-9.14,1.76,97.19,97.19,0,0,1-10,.59,89.22,89.22,0,0,1-9.27-.55,42.81,42.81,0,0,1-8.59-1.65,31.15,31.15,0,0,1-5.81-2.73,28.13,28.13,0,0,1-4.92-3.78,26.48,26.48,0,0,1-4-4.84,31.21,31.21,0,0,1-2.93-5.93,36.57,36.57,0,0,1-1.81-7,49.85,49.85,0,0,1-.6-8V340.5a1.93,1.93,0,0,1,.07-.53,1.64,1.64,0,0,1,.21-.46,1.42,1.42,0,0,1,.39-.38,2.61,2.61,0,0,1,.6-.29c.24-.08,4.61-.12,9-.12s8.73,0,9,.12a2.51,2.51,0,0,1,.58.29,1.46,1.46,0,0,1,.38.38,1.64,1.64,0,0,1,.21.46,1.93,1.93,0,0,1,.07.53v47.31c0,2.13.13,16.57.39,18.43s4.74,6.42,7.14,6.71,9.13.32,10.86.32,8.54,0,11-.27,6.73-4.51,7-6.31.38-16.17.38-18.23V340.59a1.93,1.93,0,0,1,.07-.53,1.64,1.64,0,0,1,.21-.46,1.42,1.42,0,0,1,.39-.38,2.61,2.61,0,0,1,.6-.29c.24-.08,4.59-.12,8.94-.12s8.69,0,8.92.12a2.71,2.71,0,0,1,.59.29,1.69,1.69,0,0,1,.41.38,1.56,1.56,0,0,1,.24.46,1.73,1.73,0,0,1,.08.53v56.17Z" transform="translate(-419 -322.99)"/><path class="cls-1" d="M661.74,431.15c-2.48,0-1.69-.18-4.93-.54a41.94,41.94,0,0,1-8.42-1.62,30.51,30.51,0,0,1-5.69-2.67,27.56,27.56,0,0,1-4.82-3.7,25.94,25.94,0,0,1-3.88-4.74,30.58,30.58,0,0,1-2.87-5.81,35.82,35.82,0,0,1-1.78-6.83,48.83,48.83,0,0,1-.59-7.8V341.51a1.89,1.89,0,0,1,.07-.52,1.61,1.61,0,0,1,.21-.45,1.39,1.39,0,0,1,.38-.37,2.56,2.56,0,0,1,.59-.29c.23-.08,4.51-.12,8.79-.12s8.55,0,8.77.12a2.45,2.45,0,0,1,.57.29,1.43,1.43,0,0,1,.37.37,1.61,1.61,0,0,1,.21.45,1.89,1.89,0,0,1,.07.52v46.34c0,2.09.13,16.23.38,18s.29,8,7,9.11c2.35.28,9,0,10.64,0h23.11c.19,0,.19,16.13,0,16.13Z" transform="translate(-419 -322.99)"/><path class="cls-1" d="M732.23,431.15a87.4,87.4,0,0,1-9.08-.54,41.94,41.94,0,0,1-8.42-1.62,30.51,30.51,0,0,1-5.69-2.67,27.56,27.56,0,0,1-4.82-3.7,25.94,25.94,0,0,1-3.88-4.74,30.58,30.58,0,0,1-2.87-5.81,35.82,35.82,0,0,1-1.78-6.83,48.83,48.83,0,0,1-.59-7.8V341.51a1.89,1.89,0,0,1,.07-.52,1.61,1.61,0,0,1,.21-.45,1.39,1.39,0,0,1,.38-.37,2.56,2.56,0,0,1,.59-.29c.23-.08,4.51-.12,8.79-.12s8.55,0,8.77.12a2.45,2.45,0,0,1,.57.29,1.43,1.43,0,0,1,.37.37,1.61,1.61,0,0,1,.21.45,1.89,1.89,0,0,1,.07.52v46.34c0,2.09.13,16.23.38,18s.29,8,7,9.11c2.35.28,9,0,10.64,0h23.11c.19,0,.19,16.13,0,16.13Z" transform="translate(-419 -322.99)"/><path class="cls-1" d="M525.06,346.43v-5.84a1.93,1.93,0,0,0-.07-.53,1.64,1.64,0,0,0-.21-.46,1.46,1.46,0,0,0-.38-.38,2.51,2.51,0,0,0-.58-.29c-.23-.08-44.15-.12-48.52-.12-4.15,0-16.59,0-24.88,8.48s-8.29,39.21-8.29,39.21,0,28.65,8.29,37.13,20.73,8.48,24.88,8.48c4.37,0,49.53,0,49.76-.12V377H489.65c-4.37,0-8.73,0-9,.12a2.51,2.51,0,0,0-.58.29,1.46,1.46,0,0,0-.38.38,1.64,1.64,0,0,0-.21.46,1.93,1.93,0,0,0-.07.53v13.57a1.93,1.93,0,0,0,.07.53,1.64,1.64,0,0,0,.21.46,1.46,1.46,0,0,0,.38.38,2.51,2.51,0,0,0,.58.29c.23.08,6.83.12,11.2.12s11,0,11.2.12a2.51,2.51,0,0,1,.58.29,1.46,1.46,0,0,1,.38.38,1.64,1.64,0,0,1,.21.46,1.93,1.93,0,0,1,.07.53v14.6H479.45s-16.59,0-16.59-17V372.72c0-17,16.59-17,16.59-17H496c4.37,0,27.56,0,27.78-.12a2.51,2.51,0,0,0,.58-.29,1.46,1.46,0,0,0,.38-.38,1.64,1.64,0,0,0,.21-.46,1.93,1.93,0,0,0,.07-.53V345" transform="translate(-419 -322.99)"/></svg>