<svg id="Layer_1" data-name="Layer 1" xmlns="http://www.w3.org/2000/svg" viewBox="0 0 167 167"><defs><style>.cls-1{fill:#007143;}.cls-2{fill:#fff;}.cls-3{fill:#d9081d;}</style></defs><title>logo_puma</title><rect class="cls-1" y="122" width="167" height="45"/><path class="cls-2" d="M614.92,457,633,432.54l16.06-.06h.23c.94,0,4.23.2,5.29,3.07,1.28,3.43-1.14,6.74-1.14,6.74L649.94,447s-2.89,4.46-10.11,4.46h-10.4l-4.4,5.45-10.11,0m24.48-17.42L636,444h3.48a5.9,5.9,0,0,0,2.91-.62c.61-.36,2-1.85,1.62-3-.23-.77-1.4-.84-1.81-.84H639.4" transform="translate(-600 -301)"/><path class="cls-2" d="M663.47,457.69c-.67,0-1.11,0-1.11,0l-5.41-.27a7.07,7.07,0,0,1-6.12-4.39c-1-2.74,1.11-5.49,1.11-5.49l11.45-15.16h11s-10.06,13.26-10.76,14.06c-1.72,1.92-.15,3.36,1.09,3.36a4.51,4.51,0,0,0,3.71-1.79l11.38-15.71h11.6s-14.81,19.48-15.16,19.89a21,21,0,0,1-6.12,4.46,18.63,18.63,0,0,1-6.71,1.05" transform="translate(-600 -301)"/><polygon class="cls-2" points="87.13 155.92 76.98 155.92 95.43 131.36 104.55 131.36 105.24 137.67 115.94 131.29 128.08 131.29 109.71 155.85 99.06 155.85 107.71 144.53 97.08 149.95 96.54 144.19 87.13 155.92"/><path class="cls-2" d="M742.36,456.78H731.79l3.71-4.87h-7.21l-3.77,4.87H714.09l18.31-24.49h14c.62,0,4.74.12,6.58,3.23a7.77,7.77,0,0,1-.21,8c-.75,1.1-10.42,13.31-10.42,13.31M737.14,440l-3.09,4.18h7.75l1.67-2.4a1.37,1.37,0,0,0,.11-1,1.12,1.12,0,0,0-1.22-.75h-5.22" transform="translate(-600 -301)"/><rect class="cls-3" width="167" height="122"/><path class="cls-2" d="M759.49,383.81a19.89,19.89,0,0,1-5.12-.94c-3.52-1-21.29-7.78-36.4-10,0,0-8.24-2.06-15.27-4.56-4.64-1.63-8.94-2.77-12.95-2.77a17.17,17.17,0,0,0-6,1,123.84,123.84,0,0,0-13.36,5.87,18.58,18.58,0,0,1-8.33,1.6c-1.19,0-2.36-.06-3.57-.13-1.86-.12-3.39-.29-4.93-.29-3,0-6,.67-11.19,3.78-6.08,3.65-8.42,5.72-13.16,5.72a25,25,0,0,1-4.13-.4s-1.36-.08-.61-1.25l1.32-2.23s.14-.77,1.93-.92,4.74-.92,5.6-1.61a27.87,27.87,0,0,1,3.4-2.11,42.29,42.29,0,0,0,9.21-7,4.66,4.66,0,0,1,4-1.82h.27c.93,0,1.86.08,2.79.08a10,10,0,0,0,5.47-1.17c2.1-1.4,6-4.37,6.81-5.53s1-2,.59-2.65a4.94,4.94,0,0,0-3.37-2.05,75.89,75.89,0,0,0-9.28-1H653s-10.53-.83-19.52-.86h-.27c-9,0-21,1.57-23.08,1.6h-.86s-4,0-4.25-1.47,4.54-2.06,4.54-2.06a266.85,266.85,0,0,1,27.85-1.43,195.65,195.65,0,0,1,24.7,1.43,46.23,46.23,0,0,0,6.79.62,16.11,16.11,0,0,0,2.61-.18c2.93-.49,19.93-3.83,34.59-3.83a70.55,70.55,0,0,1,8.43.45c15.71,1.91,16,5.1,21.71,5.87a3.91,3.91,0,0,0,.51,0c3.2,0,7.56-3.56,7.56-3.56l1.46,1.91a1.24,1.24,0,0,0,.84.47l.2,0a1.42,1.42,0,0,1,.39,0c1.42,0,6,.66,7.38,4.29,1.61,4.11,2.19,5.58,2.19,5.58s.88.73-.15,2.35-4.1,3.67-4.1,3.67a1.47,1.47,0,0,1-1.22.65,2.59,2.59,0,0,1-1.56-.65c-1.91-1.46-3.08-1.17-5.6-1.32-2-.11-3.81-.71-5.73-.71a8.22,8.22,0,0,0-1.44.12c-2.5.44-1.77,2.35,1.46,4.55s12.78,7.93,12.78,7.93a21.39,21.39,0,0,0,5.72,1.46c2,0,5.28,0,5,2.06-.13,1-1.13,1.38-2.49,1.38" transform="translate(-600 -301)"/></svg>