<svg id="Layer_1" data-name="Layer 1" xmlns="http://www.w3.org/2000/svg" viewBox="0 0 173.46 71.4"><defs><style>.cls-1,.cls-2{fill:#e63027;}.cls-1,.cls-3,.cls-4{fill-rule:evenodd;}.cls-3{fill:#fff;}.cls-4{fill:#0072bb;}</style></defs><title>logo_liberty</title><path class="cls-1" d="M602,378.48H616.5l-5.29,24.86h12l-2,8.73H596L602.75,380s.15-.75-.05-1a1.51,1.51,0,0,0-.68-.46Z" transform="translate(-596 -349)"/><path class="cls-1" d="M627.61,389h11.94l-5,23H623.41l4.54-21.54s.15-.75-.05-1a4.85,4.85,0,0,1-.28-.45Z" transform="translate(-596 -349)"/><path class="cls-1" d="M716.59,397.56c-2-.45-6.17-2.1-7.84.5-1,3.25-2,6.54-2.66,9.95l-.2,1c-.37,1.86-.61,3.08-.61,3.08H694.17l4.54-21.54s.15-.75-.06-1a4.82,4.82,0,0,1-.28-.45h11.94s-.33,1.64-.46,2.25c0,0,2.42-2.36,4.57-2.53a9,9,0,0,1,3.83.19c.09,0-1.66,8.6-1.66,8.6Z" transform="translate(-596 -349)"/><path class="cls-2" d="M719.37,389h3.34l.82-4.25,12.15-3.68L734,389h4.67l-1.18,6.38h-4.87L731,403.07a2.17,2.17,0,0,0,.12,1.32,1.46,1.46,0,0,0,1.33.54h2.78l-1.5,6.87a22.74,22.74,0,0,1-5.43.94c-5.12-.1-8.64-.25-9.38-3.69a4.47,4.47,0,0,1-.07-1.13c.15-1.59,2.53-12.49,2.53-12.49h-3.16l1.18-6.38Z" transform="translate(-596 -349)"/><polygon class="cls-1" points="143.9 40.04 155.78 40.04 156.68 51.3 162.03 40.04 173.46 40.04 155.78 71.4 143.9 71.4 148.06 63.07 143.9 40.04 143.9 40.04"/><path class="cls-1" d="M643.23,378.48h12.5l-2.63,12.36s1.63-.8,2.8-1.44c2.37-1.3,5.84-2.07,8.77-.46,1.55.85,2.78,3.34,2.87,3.58.86,2.22.64,3.39.55,5.54a19.88,19.88,0,0,1-1.21,5.34,21.35,21.35,0,0,1-2.93,5.21,22.25,22.25,0,0,1-2.8,2.53,9.51,9.51,0,0,1-2.14,1.07,16.85,16.85,0,0,1-5.77.36,5.62,5.62,0,0,1-2.77-1.25,18.15,18.15,0,0,0-1.69-1.3c-.61-.47-.6,2-1.2,2.06H636.82L643.57,380s.15-.75-.05-1a4.18,4.18,0,0,1-.28-.46Zm7.8,21.2c.93-3.23,2.84-5.51,4.25-5.11s1.81,3.34.88,6.57-2.84,5.51-4.25,5.11-1.81-3.34-.88-6.57Z" transform="translate(-596 -349)"/><path class="cls-1" d="M694.36,404.41c-.94,3.06-3.28,4.91-6.11,6.7-3.54,2.25-15.9,3.37-18.83-2.34s.44-16.44,7.21-19.27c7.06-3,15.84-1.8,18,2.64a13.65,13.65,0,0,1,.34,10.33H678.74s-.55,3.09.56,4a2.83,2.83,0,0,0,3.78-.23,7.39,7.39,0,0,0,1.45-1.87Zm-14.46-6.9c.82-2.94,1-4.27,4.57-4.1,1.55.08,1.52,1.94,1.6,4.06l-6.17,0Z" transform="translate(-596 -349)"/><path class="cls-3" d="M637.22,350c6.25,1.6,11.74,10.44,11.74,11.77a11.38,11.38,0,0,1-1,7.87c-1.55,3-11.45,10.73-11.45,11.29-1.16,1.16-2.43,6.22-2.43,6.22s-9.79-7.44-12-10.54c-1.77-2.66-3.93-7.36-.8-13.86,3.62-6.5,8.55-3.46,9.71-10.87.28-1.77-5.75-2.43-5.75-2.43s7.14-1.38,12,.55Z" transform="translate(-596 -349)"/><path class="cls-4" d="M632,351.8a17.68,17.68,0,0,1-.83,3.3c-1.68,4-5.47,3.32-7.86,6.59-4.5,6.17-2,13-1.93,12.57a17.37,17.37,0,0,1,2.38-6.06c3.54-5.68,11.34-7.72,11.31-12.93,0-2.37-3.07-3.47-3.07-3.47Z" transform="translate(-596 -349)"/><path class="cls-1" d="M627.7,349.52c.84-.24,8.27,1.44,9.12,4,1.26,3.7-.17,5.54-1.88,7.35,0,0-5.16,4.1-6.85,5.79s-5.49,5.54-4.84,8.66c.69,3.3,6.31,7.59,6.31,7.59s-1.24-4.27-.11-6.42c3.22-6.12,12.95-11.41,14.05-16.79.46-2.24-1-4.55-2.93-6.52-5.05-5.24-13.73-3.4-12.88-3.64Z" transform="translate(-596 -349)"/><path class="cls-4" d="M633.81,386s-3.8-5.79-1.69-8.8c2.69-3.82,11.28-8.27,13.47-15.73a8.11,8.11,0,0,0-.48-4.34,12,12,0,0,1,3.22,6.23c.47,4-.84,5.74-4.34,9.39s-7.73,6.13-8.84,8.42a16,16,0,0,0-1.35,4.82Z" transform="translate(-596 -349)"/></svg>