<svg xmlns="http://www.w3.org/2000/svg" viewBox="0 0 384.8 308.53" xmlns:v="https://vecta.io/nano"><path d="M0 0h384.8v308.53H0z" fill="#0075c9"/><path d="M214.26 270.07h-15.23l-1.24-.07-1.19-.26-1.12-.43-1.05-.58-.94-.74-.83-.88-.7-1-.55-1.11-.16-.43-.15-.42-.13-.43-.1-.42-.09-.44-.08-.43-.05-.45-.04-.45-.03-.49-.01-.49.01-.48.02-.47.05-.48.06-.47.07-.48.1-.48 5.61-28.17h-6.33l2.17-10.92h6.34l2.8-14.05h17.45l-2.81 14.05h8.39l-2.17 10.92h-8.39l-3.78 18.96-.09.47-.08.47-.06.47-.05.46-.03.47-.02.47-.01.47.01.49.01.27.02.27.04.27.06.26.07.25.09.25.11.25.13.25.2.31.23.29.26.25.28.23.31.18.33.15.35.11.36.07.25.04.25.02.25.03.24.02.25.02.24.01.25.01.26.01 2.36.04-2.77 13.96zm-148.3-65.52H83.4l-8.37 41.97-.1.5-.07.49-.03.49-.01.49.02.49.06.49.08.49.11.49.31.88.42.81.53.74.62.65.7.56.79.46.84.35.91.23.32.05.32.04.32.02.32.01.32-.01.32-.02.32-.03.32-.04 1.59-.44 1.48-.65 1.36-.85 1.21-1.03 1.04-1.2.87-1.35.66-1.46.45-1.58 8.38-42.04h17.53l-8.39 42.1-.76 2.96-1.01 2.82-1.27 2.67-1.52 2.52-1.77 2.36-2.01 2.19-2.23 2-2.46 1.81-1.61.99-1.63.88-1.66.79-1.68.69-1.72.6-1.76.51-1.81.42-1.86.33-2.51.3-2.48.04-2.44-.21-2.4-.47-2.33-.71-2.26-.95-2.17-1.2-2.08-1.43-.79-.67-.74-.7-.68-.75-.63-.77-.58-.82-.52-.86-.47-.9-.43-.95-.41-1.07-.35-1.07-.29-1.07-.23-1.08-.17-1.1-.11-1.1-.06-1.12.01-1.15.02-.61.03-.61.04-.6.06-.59.07-.59.08-.59.1-.6.12-.6 8.37-42.04zm44.52 65.52l9.28-46.59h15.3l-.75 3.8 1.31-1.16 1.37-1.04 1.44-.91 1.49-.79 1.56-.67 1.61-.54 1.67-.41 1.73-.29 1.12-.11 1.09-.03 1.09.05 1.07.13 1.05.2 1.05.29 1.04.36 1.02.44.74.39.7.43.65.48.61.53.56.57.52.62.47.67.42.71.42.82.36.83.3.85.24.85.19.87.13.89.08.9.02.92-.01.5-.01.5-.03.48-.04.49-.06.48-.07.48-.08.49-.1.5-6.38 32.02h-15.9l5.64-28.25.09-.54.05-.54.02-.54-.03-.52-.07-.53-.1-.52-.15-.53-.19-.51-.3-.65-.4-.59-.47-.51-.55-.44-.6-.35-.65-.26-.68-.17-.72-.06h-.26l-.25.01-.25.02-.24.04-.25.05-.24.05-.24.07-.25.08-.53.21-.51.25-.49.28-.46.3-.44.34-.42.37-.4.41-.38.44-.37.47-.34.49-.3.51-.27.52-.24.53-.2.55-.17.57-.14.59-5.64 28.36h-15.88zm61.73-53.13l2.47-12.39h15.93l-2.48 12.39h-15.92zm-10.55 53.13l9.28-46.59h15.89l-9.29 46.59h-15.88z" fill="#fff" fill-rule="evenodd"/><path d="M190.61 204.55h-15.93l-2.47 12.39 18.4-12.39z" fill-rule="evenodd" fill="#d9272e"/><path d="M221.44 245.85l.83-3 1.1-2.9 1.35-2.74 1.61-2.59 1.85-2.42 2.09-2.24 2.32-2.05 2.55-1.86 2.29-1.35 2.37-1.1 2.44-.84 2.5-.59 2.54-.33 2.58-.08 2.6.19 2.62.45.44.11.43.11.42.12.42.13.41.14.41.15.41.16.42.17 1.35.66 1.26.76 1.17.86 1.08 1 1 1.06.88 1.15.78 1.25.68 1.33.43 1 .38 1 .32 1 .27 1 .21 1 .16 1.06.11 1.08.05 1.1v1.49 1.46l-.09 1.44-.14 1.43-.19 1.42-.25 1.42-.3 1.43-.35 1.44h-31.37l-.07.41-.05.4v.4.4.8.4.41l.05.38.07.37.08.36.1.35.11.35.13.35.14.35.16.35.33.61.39.56.44.51.49.45.54.4.58.34.62.28.66.22.56.12.56.08h.56.56l.56-.05.55-.09.55-.14.55-.18.89-.4.85-.46.8-.52.74-.58.69-.64.64-.7.59-.76.53-.82h15l-.64 1.41-.71 1.35-.78 1.29-.85 1.23-.92 1.18-1 1.12-1.08 1.07-1.16 1-2.92 2.33-3.17 1.86-3.38 1.52-3.5.91-3.6.41-3.64-.09-3.63-.6-3.57-1.13-1.24-.56-1.17-.64-1.1-.73-1-.82-1-.9-.87-1-.8-1.07-.72-1.15-.7-1.34-.6-1.36-.5-1.38-.4-1.4-.3-1.42-.2-1.45-.1-1.48v-1.51-.92l.1-1 .13-1.07.15-1 .14-.93.13-.76.09-.51zm23.25-12.52l-1.23.7-1.14.81-1 .91-.93 1-.82 1.1-.7 1.19-.58 1.27-.46 1.34h15.69l.07-.5v-.49-.49-.49-.49l-.05-.49-.08-.49-.1-.49-.12-.44-.14-.42-.16-.41-.19-.39-.21-.38-.24-.37-.26-.36-.29-.35-.46-.47-.5-.41-.54-.34-.58-.27-.6-.2-.63-.13-.64-.06h-.66-.32-.32l-.31.06-.31.07-.3.08-.3.1-.3.11zm69.92 36.74H299l.77-3.91-1.07.9-1.1.82-1.13.75-1.16.67-1.2.6-1.24.54-1.29.47-1.33.41-.82.21-.81.16-.81.13-.81.09h-.81-.82-.82l-.84-.06-1.66-.3-1.58-.49-1.47-.66-1.38-.85-1.27-1-1.13-1.18-1-1.32-.83-1.46-.19-.41-.18-.41-.17-.41-.16-.41-.15-.41-.14-.42-.13-.43-.12-.44-.53-3.85-.17-3.81.2-3.77.56-3.71.91-3.64 1.27-3.56 1.62-3.46 2-3.35.87-1.28.93-1.2 1-1.13 1.06-1.06 1.12-1 1.19-.92 1.26-.86 1.33-.79 2.61-1.25 2.74-.77 2.8-.3 2.8.16 2.74.61 2.61 1.05 2.42 1.49 2.17 1.91 4.42-22.2h15.62zm-12.35-17.71l.63-1.37.53-1.39.43-1.4.33-1.42.23-1.44.14-1.46v-1.48l-.06-1.51v-.63l-.09-.62-.14-.6-.19-.58-.24-.56-.28-.55-.33-.53-.38-.51-.33-.39-.36-.35-.38-.31-.41-.27-.43-.23-.46-.19-.48-.15-.5-.11-.55-.06h-.54-.54l-.53.07-.52.11-.52.15-.51.19-.5.23-.4.21-.38.22-.37.24-.36.25-.34.27-.33.29-.32.3-.31.32-.4.43-.38.44-.35.45-.33.46-.31.48-.29.49-.28.51-.26.53-.62 1.38-.52 1.39-.43 1.4-.33 1.42-.24 1.44-.14 1.46v1.48 1.51l.05.64.09.62.13.61.18.59.22.58.26.57.3.55.35.54.32.4.35.37.38.32.4.28.43.24.46.2.48.16.5.11h.27.26.26.52.26.26.27l.59-.13.57-.17.55-.21.53-.24.51-.28.49-.32.47-.35.45-.39.55-.52.51-.54.48-.55.45-.57.42-.59.39-.62.37-.64z" fill-rule="evenodd" fill="#fff"/><path d="M182.27 142.93l22.35-112.72h121.15l-143.5 112.72z" fill-rule="evenodd" fill="#d9272e"/></svg>